<svg width="81" height="32" viewBox="0 0 81 32" fill="none" xmlns="http://www.w3.org/2000/svg">
<path d="M66.0071 10.2599L50.6171 0.926677C50.6171 0.926677 40.5888 -0.430288 34.0688 0.132356C30.3288 0.463323 26.1586 0.959773 20.8301 3.30964C15.5015 5.65951 11.563 7.31434 6.43301 7.97627L62.7305 13.6358L66.0071 10.2599Z" fill="#808BF6"/>
<path d="M37.4779 2.08508C32.2486 2.08508 28.0784 2.71392 25.0666 3.9385C24.8018 4.03779 24.3716 4.26947 24.2723 4.30256L23.4449 4.69972L23.4118 4.73282C23.4118 4.73282 19.6718 7.77772 24.6032 8.43965C29.8656 8.63823 35.7237 8.86991 41.0192 9.13468L41.979 2.21747C40.5558 2.15128 39.0334 2.08508 37.4779 2.08508Z" fill="#CED3FF"/>
<path d="M60.116 9.10153L49.7236 2.94555C49.7236 2.94555 46.083 2.58148 44.395 2.4491L43.6669 9.13463C52.0735 9.56489 60.116 9.10153 60.116 9.10153Z" fill="#CED3FF"/>
<path d="M81 25.2527V18.8651C81 18.8651 80.1726 14.0661 76.7967 12.0141C76.7967 12.0141 71.7329 9.598 55.7803 8.77058L6.40002 7.18194C6.40002 7.18194 1.66719 6.75168 1.36932 11.4845L0.641197 22.9691L13.6151 25.2527H81Z" fill="#808BF6"/>
<path d="M75.7707 16.6475C76.6974 18.0045 78.0875 18.6995 78.8818 18.17C79.643 17.6405 79.5106 16.0849 78.5839 14.7279C77.6572 13.371 76.2672 12.6759 75.4728 13.2055C74.6785 13.735 74.844 15.2575 75.7707 16.6475Z" fill="#CED3FF"/>
<path d="M69.1513 16.0188C73.3214 16.8462 76.0023 20.9171 75.1749 25.0542C74.3143 29.2244 70.2765 31.9052 66.1064 31.0447C61.9362 30.2173 59.2553 26.1464 60.0828 22.0093C60.9433 17.8391 65.0142 15.1583 69.1513 16.0188Z" fill="#404040"/>
<path d="M67.0333 26.5766C68.7212 26.9075 70.343 25.8153 70.6739 24.1605C71.0049 22.4726 69.9458 20.8508 68.2579 20.5199C66.5699 20.1889 64.9482 21.248 64.6172 22.9359C64.2863 24.5908 65.3454 26.2125 67.0333 26.5766Z" fill="#FFEFEF"/>
<path d="M11.8279 17.6736L5.73809 23.7634L10.0076 24.5577C10.0076 24.5577 10.0076 24.326 10.0076 24.2267C9.94137 19.8249 11.8279 17.6736 11.8279 17.6736Z" fill="#808BF6"/>
<path opacity="0.2" d="M43.5014 8.53888H43.8324V25.2858H43.5014V8.53888Z" fill="#C2E3F2"/>
<path opacity="0.2" d="M22.3526 7.71149H22.6836V25.2527H22.3526V7.71149Z" fill="#C2E3F2"/>
<path d="M30.9909 25.2859C31.2556 23.6641 31.1563 22.0424 30.693 20.5861H57.5675C57.4682 20.884 57.402 21.1819 57.3358 21.4797C57.0711 22.7705 57.0711 24.0613 57.2696 25.2859H30.9909Z" fill="#808BF6"/>
<path d="M19.3078 31.0447C15.1376 30.2173 12.4568 26.1464 13.2842 22.0093C14.1116 17.8391 18.1825 15.1582 22.3196 15.9857C26.4898 16.8131 29.1706 20.884 28.3432 25.0211C27.5158 29.2243 23.478 31.9052 19.3078 31.0447Z" fill="#404040"/>
<path d="M21.426 20.4868C19.7381 20.1558 18.1163 21.2149 17.7854 22.9028C17.4544 24.5908 18.5135 26.2125 20.2014 26.5435C21.8894 26.8744 23.5111 25.7823 23.8421 24.1274C24.2061 22.4726 23.1139 20.8178 21.426 20.4868Z" fill="white"/>
<path opacity="0.5" d="M45.5534 11.0212H50.0215V12.5105H45.5534V11.0212Z" fill="#C2E3F2"/>
<path opacity="0.5" d="M25.2651 11.0212H29.7332V12.5105H25.2651V11.0212Z" fill="#C2E3F2"/>
</svg>
