<svg width="157" height="44" viewBox="0 0 157 44" fill="none" xmlns="http://www.w3.org/2000/svg">
<path d="M25.0095 36.0456H18.1931V33.5796C16.9601 35.7964 14.1269 36.8239 11.4598 36.8239C4.228 36.8282 0 31.1574 0 24.6296C0 17.153 5.37791 12.4746 11.4598 12.4746C15.1981 12.4746 17.2924 14.2804 18.1931 15.6795V13.2572H25.0095V36.0456ZM6.81639 24.752C6.81639 26.8463 8.3773 30.4622 12.4829 30.4622C14.9051 30.4622 16.383 29.3123 17.2487 27.9175C17.8258 27.0125 18.11 26.0287 18.1931 25.0012C18.2761 23.9737 18.0707 22.9462 17.6203 22.0018C16.8814 20.4409 15.3205 18.8407 12.4435 18.8407C8.54344 18.8407 6.81639 22.1242 6.81639 24.7126V24.752Z" fill="#808BF6"/>
<path d="M39.6697 19.6578C39.6304 19.1637 39.5473 17.9307 37.536 17.9307C36.0976 17.9307 35.6079 18.8358 35.6079 19.4523C35.6079 20.4798 37.2912 21.1749 39.097 21.7127C42.9577 22.7796 47.0633 23.9295 47.0633 28.857C47.0633 33.8677 42.8353 36.8234 37.7809 36.8234C34.3312 36.8234 29.115 35.2624 28.4985 29.268H35.2756C35.5641 31.3624 37.5754 31.3624 37.864 31.3624C39.0139 31.3624 40.2469 30.7065 40.2469 29.596C40.2469 28.0351 38.5635 27.8296 34.2087 26.1462C31.2531 25.2018 28.7871 23.2736 28.7871 20.1912C28.7871 15.4691 32.8927 12.4697 37.6147 12.4697C40.6141 12.4697 45.7865 13.659 46.3637 19.6578H39.6697Z" fill="#808BF6"/>
<path d="M74.4163 36.0451H67.5999V33.5791C66.367 35.7959 63.5337 36.8234 60.8666 36.8234C53.6392 36.8234 49.4069 31.1569 49.4069 24.6247C49.4069 17.1481 54.7848 12.4697 60.8666 12.4697C64.6049 12.4697 66.6992 14.2755 67.5999 15.6746V13.2524H74.4163V36.0451ZM56.2233 24.7515C56.2233 26.8458 57.7842 30.4617 61.8897 30.4617C64.312 30.4617 65.7898 29.3118 66.6555 27.917C67.2327 27.0119 67.5169 26.0282 67.5999 25.0007C67.683 23.9732 67.4775 22.9457 67.0272 22.0013C66.2883 20.4404 64.7274 18.8401 61.8504 18.8401C57.9503 18.8401 56.2233 22.1237 56.2233 24.7121V24.7515Z" fill="#808BF6"/>
<path d="M79.3833 13.2524H85.7887V15.7577C87.2665 14.0307 89.527 12.4741 93.0161 12.4741C101.105 12.4741 104.144 19.5791 104.144 24.8783C104.144 31.4498 99.5439 36.8278 93.0554 36.8278C88.9498 36.8278 87.0173 34.8558 86.1953 33.9945V36.0495V43.6485H79.3789V13.2524H79.3833ZM97.3315 24.6291C97.3315 21.9576 95.3596 18.8402 91.6213 18.8402C89.9773 18.8402 88.5432 19.496 87.5157 20.5628C86.532 21.5903 85.9155 23.0682 85.9155 24.7121C85.9155 26.3124 86.532 27.7509 87.5594 28.7784C88.5869 29.8059 90.0254 30.4617 91.6257 30.4617C95.1978 30.4617 97.3359 27.5454 97.3359 24.6728V24.6291H97.3315Z" fill="#808BF6"/>
<path d="M108.009 13.2524H114.414V15.7577C115.892 14.0307 118.152 12.4741 121.641 12.4741C129.73 12.4741 132.769 19.5791 132.769 24.8783C132.769 31.4498 128.169 36.8278 121.681 36.8278C117.575 36.8278 115.643 34.8558 114.821 33.9945V36.0495V43.6485H108.004V13.2524H108.009ZM125.957 24.6291C125.957 21.9576 123.985 18.8402 120.247 18.8402C118.603 18.8402 117.168 19.496 116.141 20.5628C115.157 21.5903 114.541 23.0682 114.541 24.7121C114.541 26.3124 115.157 27.7509 116.185 28.7784C117.212 29.8059 118.651 30.4617 120.251 30.4617C123.823 30.4617 125.961 27.5454 125.961 24.6728V24.6291H125.957Z" fill="#808BF6"/>
<path fill-rule="evenodd" clip-rule="evenodd" d="M157 9.68024C157 4.32856 152.501 0 146.983 0C141.465 0 136.966 4.32856 136.966 9.68024C136.966 9.97755 136.966 10.2311 137.01 10.5285H136.966C136.966 15.832 146.983 28.1007 146.983 28.1007C146.983 28.1007 157 15.7883 157 10.5285H156.956C156.956 10.2311 157 9.97755 157 9.68024ZM146.983 14.5597C144.775 14.5597 142.991 12.8195 142.991 10.6553C142.991 8.5347 144.775 6.79453 146.983 6.79453C149.147 6.79453 150.931 8.5347 150.931 10.6553C150.931 12.8195 149.147 14.5597 146.983 14.5597Z" fill="#E756AD"/>
<path d="M154.919 33.509C154.919 35.4678 151.124 37.055 146.441 37.055C141.758 37.055 137.963 35.4678 137.963 33.509C137.963 31.5503 141.758 29.9587 146.441 29.9587C151.124 29.9587 154.919 31.5503 154.919 33.509Z" fill="#E756AD"/>
</svg>
