<svg xmlns="http://www.w3.org/2000/svg" xmlns:xlink="http://www.w3.org/1999/xlink" viewBox="0 0 544.82 462"><defs><style>.cls-1,.cls-12,.cls-13,.cls-22,.cls-37,.cls-39,.cls-41{fill:none;}.cls-2{fill:#f5f5f5;}.cls-3{fill:#f0f8ff;stroke:#b4d0e8;}.cls-4{clip-path:url(#clip-path);}.cls-5{fill:#2f5677;}.cls-6{fill:#98a1ff;}.cls-7{fill:#fff;}.cls-8{fill:#98a2ff;}.cls-9{fill:#dde0ff;}.cls-10{fill:#808bf6;}.cls-11{fill:#c6cbff;}.cls-12,.cls-13,.cls-37{stroke:#0f1a5c;}.cls-12{stroke-miterlimit:10;}.cls-12,.cls-13{stroke-width:1.32px;}.cls-13,.cls-22,.cls-37,.cls-39,.cls-41{stroke-linecap:round;stroke-linejoin:round;}.cls-14{fill:#1d486f;}.cls-15{fill:#bd9a75;}.cls-16{fill:#b3916e;}.cls-17{fill:#e8c399;}.cls-18{fill:#9c7c5c;}.cls-19{fill:#916644;opacity:0.27;isolation:isolate;}.cls-20{fill:#cfa880;}.cls-21{fill:#ffd6a8;}.cls-22{stroke:#101b33;stroke-width:0.58px;}.cls-23{fill:#445a8c;}.cls-24{fill:#101b33;}.cls-25{fill:#f9e3cd;}.cls-26{fill:#34456b;}.cls-27{fill:#5f6bde;}.cls-28{fill:#a9b0f9;}.cls-29{fill:#616de1;}.cls-30{fill:#c6d2f2;}.cls-31{fill:#3f5a96;}.cls-32{fill:#c4c9ff;}.cls-33{fill:#28395e;}.cls-34{fill:#6076a8;}.cls-35{fill:#c3c9ff;}.cls-36{fill:#ed5353;}.cls-37,.cls-39{stroke-width:0.7px;}.cls-38{fill:#8698c2;}.cls-39,.cls-41{stroke:#fff;}.cls-40{fill:#c5caff;}.cls-41{stroke-width:1.13px;}</style><clipPath id="clip-path"><rect class="cls-1" x="144.1" y="165.86" width="59.2" height="74.39"/></clipPath></defs><g id="Capa_2" data-name="Capa 2"><g id="Capa_1-2" data-name="Capa 1"><path class="cls-2" d="M182.38,288.46a290.26,290.26,0,0,1,211,28.48c24.5,13.7,52.91,28.28,83.22,41.42,91.55,39.65,84.35,96,17.49,98.87s-113.53-44.45-194-13.76c-135.37,51.65-350.49-15-289.5-73.24C10.71,370.16,41,323.32,182.38,288.46Z"/><circle class="cls-3" cx="170.67" cy="204.57" r="62.5"/><g class="cls-4"><path class="cls-5" d="M172,222.76A22.34,22.34,0,0,1,157,216.85a20.42,20.42,0,0,1-6.46-15,21.33,21.33,0,0,1,21.14-21.67,38.69,38.69,0,0,1,5.23.49c.49,0,.74.49.74,1s-.74.74-1,.74a30.51,30.51,0,0,0-4.73-.5,19.54,19.54,0,0,0-19.15,19.71,19.44,19.44,0,0,0,19.9,19,19.53,19.53,0,0,0,19.15-19.7,1,1,0,0,1,2,0,21.32,21.32,0,0,1-21.14,21.67C172.21,222.76,172.21,222.76,172,222.76Z"/><path class="cls-5" d="M175.69,222.27c-2.49,0-5.22-1.48-8-4.44A34.84,34.84,0,0,1,161,204.29c-3-11.58-.49-21.68,5.48-23.16s12.93,6.41,15.92,18a34.88,34.88,0,0,1,.74,15c-1,4.43-3.23,7.39-6.21,8.13Zm-7.46-39.66a1.5,1.5,0,0,0-1,.25c-4.72,1.23-6.71,10.84-4.23,20.94a31.1,31.1,0,0,0,6.22,12.8c2.49,3,5.23,4.44,7.47,3.7,2.24-.49,4-3,4.72-6.9,1-3.94.75-9.11-.74-14.28C178.43,189.76,173,182.61,168.23,182.61Z"/><path class="cls-5" d="M152.31,199.85c-.5,0-.75-.24-1-.73a1.36,1.36,0,0,1,.75-1.24l30.35-7.39a1.37,1.37,0,0,1,1.24.74,1.34,1.34,0,0,1-.74,1.23Z"/><path class="cls-5" d="M155.54,213.65c-.5,0-.74-.25-1-.74a1.35,1.35,0,0,1,.74-1.23l36.32-8.87a1.38,1.38,0,0,1,1.25.74,1.36,1.36,0,0,1-.75,1.23l-36.57,8.87Z"/><path class="cls-5" d="M178.18,226.46c-.5,0-.75-.25-1-.74L164.75,176c-.25-.49,0-1,.49-1a1.37,1.37,0,0,1,1.25.74l12.68,50c0,.24-.24.74-1,.74Z"/><path class="cls-5" d="M171.71,228.92a27.34,27.34,0,1,1,0-54.68,1,1,0,1,1,0,2,25.3,25.3,0,0,0-25.62,25.37A25.72,25.72,0,0,0,172,227.19a26,26,0,0,0,10.7-2.21.91.91,0,0,1,1.24.49.89.89,0,0,1-.5,1.23A37.84,37.84,0,0,1,171.71,228.92Z"/><path class="cls-5" d="M171.71,235.32a1.06,1.06,0,0,1-1-1v-6.41a1,1,0,0,1,2,0v6.41A1.06,1.06,0,0,1,171.71,235.32Z"/><path class="cls-5" d="M180.17,240.25H163.25V233.6h16.92Zm-14.93-2h13.19v-3H165.24Z"/><path class="cls-5" d="M189.37,240.25H154.05a1,1,0,1,1,0-2h35.07a1.06,1.06,0,0,1,1,1C190.12,239.76,189.87,240.25,189.37,240.25Z"/><path class="cls-5" d="M191.11,197.14l-9.7-13.54a12.62,12.62,0,0,1-1.74-5.91,11.7,11.7,0,0,1,23.39,0c0,3.2-3,7.63-3.24,7.88Zm-7.21-13.3,7.21,10.1,7.22-9.6c1-1.23,3-4.68,3-6.9a10,10,0,0,0-19.9,0,11.72,11.72,0,0,0,1.74,5.67Z"/><path class="cls-5" d="M191.36,182.12a4.7,4.7,0,0,1-4.72-4.68,4.49,4.49,0,0,1,4.72-4.43,4.7,4.7,0,0,1,4.73,4.68C196.09,180.4,194.1,182.12,191.36,182.12Zm0-7.14a2.71,2.71,0,1,0,2.74,2.71A2.74,2.74,0,0,0,191.36,175Z"/></g><path class="cls-6" d="M79.14,396.47l130.45-72.61c8.14-3.85,14.77-15.72,14.77-26.58V14.1c0-10.79-6.63-16.48-14.77-12.62L73.4,65.69c-8.15,3.85-14.78,15.72-14.78,26.58V374.12c0,7.14,2.66,10.36,7.2,13.39Z"/><path class="cls-6" d="M154.59,138.23S224.43,307.89,224.43,297l11.49-285.2L218.81,1.1c-2.53-1.46-5.69-1.52-9.1.12L73.46,65.44c-4,1.89-7.58,5.68-10.23,10.35Z"/><path class="cls-7" d="M87.1,396.41,223,332.13c8.15-3.85,14.46-15.78,14.46-26.58V22.37c0-10.79-6.44-16.47-14.58-12.62L87.1,74C79,77.87,72.77,89.81,72.77,100.6V383.78C72.7,394.64,79,400.26,87.1,396.41Z"/><path class="cls-8" d="M89.81,397.67l135.82-64.21c8.14-3.85,14.45-15.79,14.45-26.58V23.7c0-10.8-6.44-16.48-14.58-12.63L89.75,75.35c-8.14,3.85-14.33,15.78-14.33,26.58V385.11C75.42,395.9,81.67,401.52,89.81,397.67Z"/><path class="cls-9" d="M89.18,90.5,221.65,28.06c3-1.39,6.69,1.13,6.69,4.54V309.21a3.85,3.85,0,0,1-2.21,3.6L93.67,375.26c-3,1.39-6.7-1.14-6.7-4.55V94.1A3.76,3.76,0,0,1,89.18,90.5Z"/><path class="cls-7" d="M66.2,140.57c1.77,1,3.22.13,3.22-1.77V125.92a6.58,6.58,0,0,0-3.22-5.18c-1.77-.94-3.22-.12-3.22,1.77v12.88A6.56,6.56,0,0,0,66.2,140.57Z"/><path class="cls-10" d="M64.81,140.57c1.77,1,3.22.13,3.22-1.77V125.92a6.58,6.58,0,0,0-3.22-5.18c-1.77-.94-3.22-.12-3.22,1.77v12.88A6.24,6.24,0,0,0,64.81,140.57Z"/><path class="cls-7" d="M66.2,164.06c1.77.95,3.22.12,3.22-1.77V149.41a6.58,6.58,0,0,0-3.22-5.18c-1.77-.94-3.22-.12-3.22,1.77v12.88A6.58,6.58,0,0,0,66.2,164.06Z"/><path class="cls-10" d="M64.81,164.06c1.77.95,3.22.12,3.22-1.77V149.41a6.58,6.58,0,0,0-3.22-5.18c-1.77-.94-3.22-.12-3.22,1.77v12.88A6.43,6.43,0,0,0,64.81,164.06Z"/><path class="cls-11" d="M182.94,46.24,87.1,316,87,291.85,171.64,51.61Z"/><path class="cls-11" d="M87,107.93l67.12,12.5,74.12,114.72.07,19.76L149.1,132.3,86.91,122.13Z"/><path class="cls-11" d="M204.41,218l-23.17,82-35.42,50.57-14,6.57L170,293.68l57.71-191.75.13,31.82Z"/><path class="cls-11" d="M227.65,82.55s-44,13.07-55.06,18.56S125.42,135,125.42,135L87,168.16l-.06,13.64,39.33-36.56,45.65-33.4,55.76-16.67Z"/><path class="cls-11" d="M157.81,319.88l-15.46-35-36.69-21.22-3.72,10.48,32.13,19.58,16.61,35.92Z"/><path class="cls-11" d="M228.34,275.94,143,351.9l24-11.31,61.37-55.12Z"/><path class="cls-11" d="M228,187.74l-38.57,6.94L86.91,268.43,87,280.8l101.85-73.37,39.27-5.74Z"/><path class="cls-7" d="M127.05,120.35c5.8-9.87,5.45-20.82-.78-24.48s-16,1.37-21.76,11.23-5.44,20.82.78,24.48S121.26,130.21,127.05,120.35Z"/><path class="cls-12" d="M121,114.31c2.09-3.55,2-7.5-.31-8.82s-5.77.48-7.86,4-1.94,7.5.31,8.83S118.94,117.86,121,114.31Z"/><path class="cls-13" d="M113.3,118.47l-5.43,9"/><path class="cls-7" d="M151.69,104.58,208,78c1.89-.88,3.47-3.73,3.47-6.25s-1.58-3.85-3.47-3L151.69,95.36c-1.89.89-3.47,3.73-3.47,6.25S149.8,105.47,151.69,104.58Z"/><path class="cls-11" d="M171.85,250.84c.17-3.52-4.88-6.62-11.29-6.93s-11.74,2.29-11.91,5.81,4.88,6.62,11.29,6.93S171.68,254.36,171.85,250.84Z"/><path class="cls-14" d="M176.12,171.89l-6.81-4.8c-3.73-3-9-3.73-14.84-1.26-11.49,4.79-20.9,19.7-21,33.27a21.1,21.1,0,0,0,2.4,10.73h-.06L147,230a6.94,6.94,0,0,0,1,1.33,6.19,6.19,0,0,0,.76.63l7.82,5.5-1-6.7a14.28,14.28,0,0,0,4.49-6.06l12.62-27.15.45-2.08c1.64-4.17,1.7-9.28,1.7-13.58a22.75,22.75,0,0,0-2.08-10.16ZM154,201.37c-3.22,1.33-6,.7-7.77-1.32-1.26-1.46,1.39-2.84,1.39-5.56.06-6.44,6.63-16.48,6.63-16.48s9.78,1.14,9.72,7.58S159.52,199.16,154,201.37Z"/><path class="cls-7" d="M183.39,187.74c.12-13.58-9-20.78-20.52-16s-20.9,19.7-21,33.28a21.12,21.12,0,0,0,2.4,10.73h-.06l11.24,20.14c2.77,4.92,10.16,2,13.13-5.37l12.18-30h-.06A35.61,35.61,0,0,0,183.39,187.74Zm-20.9,19.57c-5.43,2.27-9.79-1.14-9.73-7.58s4.55-13.51,10-15.78,9.79,1.13,9.72,7.57S167.92,205,162.49,207.31Z"/><path class="cls-10" d="M184.71,188.37c.13-13.58-9-20.78-20.52-16s-20.9,19.7-21,33.28a21,21,0,0,0,2.4,10.73h-.07l11.24,20.14c2.78,4.93,10.17,2,13.13-5.37l12.19-30H182A35.07,35.07,0,0,0,184.71,188.37Zm-20.9,19.57c-5.43,2.27-9.78-1.14-9.72-7.58s4.54-13.51,10-15.78,9.79,1.13,9.73,7.57S169.24,205.67,163.81,207.94Z"/><path class="cls-15" d="M258.33,332.45v69.33L188,442.37V331.19Z"/><path class="cls-16" d="M188,331.19V442.37l-70.33-40.59V332.45Z"/><path class="cls-17" d="M188,373.24l70.53-40.73L188,291.72l-70.58,40.79Z"/><path class="cls-15" d="M231.12,315.65l-70.46,42.69-18.95-10.61,70.21-43.38Z"/><path class="cls-18" d="M234.4,368.25l18.88-11.11V344.38L234.4,355.49Z"/><path class="cls-18" d="M160.66,358.34l-.64,27-17.55-9.79.25-28.47Z"/><path class="cls-19" d="M192.92,355.18l-48-6.82L118.23,333l30.49-18.5Z"/><path class="cls-20" d="M192.92,355.18l44.2-25.51V304.92l-44.2-.82Z"/><path class="cls-16" d="M148.72,329.67l44.2,25.51V304.1l-44.2.82Z"/><path class="cls-17" d="M193.05,330.49l44.32-25.57-44.32-25.63-44.33,25.63Z"/><path class="cls-17" d="M224.68,336.81l-.57-24.25-9.85,5.68.76,24.19Z"/><path class="cls-21" d="M224.11,312.56l-43.44-26.08-9.85,5.69,43.44,26.07Z"/><path class="cls-15" d="M159.46,303.28l11.23,6.44,4.36-2.46-11.24-6.51Z"/><path class="cls-22" d="M231.81,410.61l-11.11,6.51v-14l11.11-6.5Z"/><path class="cls-22" d="M242.93,404.11l-11.12,6.5V396.66l11.12-6.5Z"/><path class="cls-22" d="M254,397.61l-11.11,6.5V390.16L254,383.72Z"/><path class="cls-22" d="M248.61,391.36v7.07"/><path class="cls-22" d="M247.22,394.07l1.39-3.34,1.39,1.7"/><path class="cls-22" d="M234.21,402.66s.07-3.85,2.59-5.3,2.72,2.21,2.72,2.21Z"/><path class="cls-22" d="M229.42,400.48s-.06,3.85-2.58,5.3-2.72-2.21-2.72-2.21Z"/><path class="cls-22" d="M237.19,400.79v2.84c0,.51.32.76.76.51a1.73,1.73,0,0,0,.76-1.39v-.38"/><path class="cls-22" d="M226.84,405.78V410"/><path class="cls-22" d="M225,411.27l3.6-2.08"/><path class="cls-23" d="M373.27,171.44s.12-1.64-.57,7.46c-.13,1.76-1.71,3-3.29,2.14a13.18,13.18,0,0,1-6.31-10.1c-1.77-13.07,5.43-8.59,5.43-8.59Z"/><path class="cls-24" d="M357.35,187.55a25.49,25.49,0,0,0-3.72.06c-1.2.19-13.51-8.53-8.33-20,3.28-7.2,16.92-.82,16.92-.82Z"/><path class="cls-25" d="M376.23,197.08l18.44,24.43A230.88,230.88,0,0,0,421.44,230l-1.26,8.08-23-2.59a19.25,19.25,0,0,1-10.86-5.37c-4.8-4.73-11.81-12.37-14.65-18.81-6.88-15.6-1.83-5-1.83-5Z"/><path class="cls-24" d="M294.85,329.8,373,378.86a33.72,33.72,0,0,0,33.72,1.26l36.87-19.45-97-57.64Z"/><path class="cls-24" d="M291.31,305.05l16.16-8.78c4.49-2.34,10.49-1.89,17.12,1.83.18.13.31.19.5.32,13.76,8.08,24.94,27.27,25.19,43.25,0,.82,0,1.64-.06,2.46a21.18,21.18,0,0,1-2.72,9.6,11.92,11.92,0,0,1-6.25,5.36l-14.08,7.71-7.07-13.7c-7.89-6.32-14.46-16.11-17.87-26.14a46.29,46.29,0,0,1-2.52-12.7v-.88L299,312Z"/><path class="cls-26" d="M309.81,327.84c-.06,0-.06-.06-.13-.06-4.1-2.34-7.38-.32-7.32,4.42a16.45,16.45,0,0,0,7.39,12.69c.06,0,.06.06.12.06,4.11,2.34,7.39.32,7.33-4.42S313.85,330.24,309.81,327.84Z"/><path class="cls-7" d="M309.87,319c8.21,4.8,15,16.35,15.09,25.95s-6.56,13.7-15,9c-.13-.06-.19-.13-.32-.19-8.27-4.86-15-16.35-15.09-26s6.57-13.7,15-9A1.4,1.4,0,0,1,309.87,319Zm-.12,25.89c.06,0,.06.06.12.06,4.11,2.34,7.39.32,7.33-4.42a16.66,16.66,0,0,0-7.39-12.75c-.06,0-.06-.07-.13-.07-4.1-2.33-7.38-.31-7.32,4.42A16.47,16.47,0,0,0,309.75,344.89Z"/><path class="cls-26" d="M309.94,306.63c13.76,8.08,24.94,27.27,25.19,43.25,0,.82,0,1.64-.06,2.46a21.22,21.22,0,0,1-2.72,9.59c-4.1,6.89-12.44,8.47-22.16,3a3.8,3.8,0,0,1-.51-.31c-9.91-5.81-18.49-17.43-22.6-29.43a46.22,46.22,0,0,1-2.52-12.69,6.13,6.13,0,0,0-.07-1.13c-.19-16.17,10.93-22.92,24.88-15A4.84,4.84,0,0,1,309.94,306.63Zm-.19,47.16c.12.06.19.13.31.19,8.4,4.73,15,.69,15-9s-6.88-21.09-15.09-25.95c-.13-.06-.19-.13-.32-.19-8.4-4.73-15.09-.69-15,9C294.78,337.37,301.48,348.93,309.75,353.79Z"/><path class="cls-10" d="M281.84,308.58c1.83-12.56,7-36.37,20.52-48.74,18.94-17.3,44.89,30.37,44.89,30.37l-4.54,14.58c7.45,11,15.53,28.16,12.88,46.54L338.41,357l-52.15-36.37a11.1,11.1,0,0,1-4.48-11.75A.47.47,0,0,0,281.84,308.58Z"/><path class="cls-27" d="M296.3,263.31l31.44-18.18a5.76,5.76,0,0,0,0-10l-33.59-19.38a5.82,5.82,0,0,0-5.74,0l-33.59,19.38a5.76,5.76,0,0,0,0,10l31.44,18.18A10.16,10.16,0,0,0,296.3,263.31Z"/><path class="cls-27" d="M251.91,239.76h78.74V201.25H251.91Z"/><path class="cls-10" d="M296.3,224.42l31.44-18.19a5.75,5.75,0,0,0,0-10l-33.59-19.39a5.82,5.82,0,0,0-5.74,0l-33.59,19.39a5.75,5.75,0,0,0,0,10l31.44,18.19A10.16,10.16,0,0,0,296.3,224.42Z"/><path class="cls-24" d="M422.51,380.75,438.68,372c4.48-2.33,10.48-1.89,17.11,1.83l.5.32c13.77,8.08,24.94,27.28,25.2,43.25,0,.82,0,1.64-.07,2.46a21.3,21.3,0,0,1-2.71,9.6,12,12,0,0,1-6.25,5.37l-14,7.76-7.07-13.7c-7.89-6.31-14.46-16.1-17.87-26.14A46.25,46.25,0,0,1,431,390v-.88l-.69-1.39Z"/><path class="cls-26" d="M441,403.54c-.06,0-.06-.06-.12-.06-4.11-2.34-7.39-.32-7.33,4.42A16.48,16.48,0,0,0,441,420.59c.06,0,.06.06.13.06,4.1,2.34,7.38.32,7.32-4.42S445.05,405.94,441,403.54Z"/><path class="cls-7" d="M441.14,394.7c8.21,4.8,15,16.36,15.09,25.95s-6.57,13.7-15,9c-.13-.06-.19-.12-.32-.19-8.27-4.86-15-16.35-15.09-25.95s6.57-13.7,15-9A1.17,1.17,0,0,0,441.14,394.7ZM441,420.59c.07,0,.07.06.13.06,4.1,2.34,7.39.32,7.32-4.42a16.65,16.65,0,0,0-7.38-12.75c-.07,0-.07-.06-.13-.06-4.1-2.34-7.39-.32-7.32,4.42A16.29,16.29,0,0,0,441,420.59Z"/><path class="cls-26" d="M441.14,382.33c13.76,8.08,24.94,27.27,25.19,43.25,0,.82,0,1.64-.06,2.46a21.18,21.18,0,0,1-2.72,9.6c-4.1,6.88-12.43,8.46-22.16,3a3.1,3.1,0,0,1-.5-.32c-9.92-5.81-18.5-17.43-22.61-29.42a46.3,46.3,0,0,1-2.52-12.69,7.26,7.26,0,0,0-.06-1.14c-.19-16.16,10.92-22.92,24.87-15A4.84,4.84,0,0,1,441.14,382.33ZM441,429.49c.13.07.19.13.32.19,8.39,4.74,15,.7,15-9s-6.88-21.08-15.09-25.95c-.13-.06-.19-.12-.32-.19-8.39-4.73-15.09-.69-15,9C426,413.08,432.68,424.63,441,429.49Z"/><path class="cls-10" d="M470.75,402.85l-6.56,2.65a9.69,9.69,0,0,1-5.31.57L412,398.18c-3-.57-.19-9.29.38-10.86,1.83-5.69,13.39-21.79,34.29-18.95,11.8,1.58,22.16,11.05,28.41,19.83A9.71,9.71,0,0,1,470.75,402.85Z"/><path class="cls-28" d="M376.23,286.61s-7.89,27.65,12.57,41.55l-33.21,23.1s-26.27-26.45-19.89-57.77C344.79,249.23,376.23,286.61,376.23,286.61Z"/><path class="cls-24" d="M298.57,270.19,344.41,299a9.81,9.81,0,0,0,9.85.37l16.67-8.77a9.89,9.89,0,0,0,.44-17.24l-47.1-28a9.8,9.8,0,0,0-9.6-.25l-15.4,8A9.81,9.81,0,0,0,298.57,270.19Z"/><path class="cls-10" d="M334.44,354.67,347.32,346l61.75,39.53L399.66,384a19.89,19.89,0,0,1-19.76-.76L373,378.92Z"/><path class="cls-29" d="M364.87,281.05c-2,0-41.61,14.27-41.61-18.56s50.64,4.67,50.64,4.67Z"/><path class="cls-30" d="M410.71,352.27l-13-13.19c-1.77-1.07-5.75-1.52-8.46-1.2a2.61,2.61,0,0,0-2.27,2.33l-.26,2.66c-.44,3.79-.12,4.35,2.21,5.68l13.77,8.21c2.33,1.39,5.87,1.58,7.89.44l.57-.32C413.23,355.68,413,353.66,410.71,352.27Z"/><path class="cls-31" d="M410.71,349.43l-13-13.19c-1.77-1.08-5.75-1.52-8.46-1.2a2.6,2.6,0,0,0-2.27,2.33l-.26,2.66c-.44,3.78-.12,4.35,2.21,5.68l13.77,8.21c2.33,1.39,5.87,1.57,7.89.44l.57-.32C413.23,352.91,413,350.82,410.71,349.43Z"/><path class="cls-30" d="M388,337.5c0,3.91,9.47,3.91,9.47,0V324.87H388Z"/><path class="cls-30" d="M396.06,361.62l-12.25-12.44c-1.7-1.14-5.62-1.83-8.33-1.64a2.56,2.56,0,0,0-2.34,2.27l-1.33.57c-.63,3.73-.31,6.12,1.9,7.58L388,367.05a8.89,8.89,0,0,0,7.89.82l.57-.32C398.52,366.54,398.33,363.07,396.06,361.62Z"/><path class="cls-31" d="M395.24,360.1l-12.31-13.82c-1.71-1.14-5.62-1.83-8.34-1.65a2.56,2.56,0,0,0-2.33,2.28l-.38,2.59c-.63,3.72-.32,4.29,1.89,5.8l13.32,8.84a8.88,8.88,0,0,0,7.9.83l.56-.32C397.64,363.64,397.51,361.56,395.24,360.1Z"/><path class="cls-30" d="M373.27,346.53c0,3.91,9.47,3.85,9.47,0V333.9h-9.47Z"/><path class="cls-29" d="M367,249.11s30.12,14.77,30.88,26.07c.5,6.95,1.89,44.14,1.2,53.67a3.75,3.75,0,0,1-2.15,3.16c-2.9,1.39-8.14,2.9-9.91-3-2.47-8.34-1.64-36.88-7.52-45s-35.23-19.7-35.23-19.7Z"/><path class="cls-29" d="M349.4,263.12s24.43,10,33.34,23.62c3.6,5.49,2.27,41.1,1.89,50.44a3.82,3.82,0,0,1-2.21,3.35c-2.9,1.39-9.22,3.16-9.85-2.52-1.14-9.73-10.8-25.89-6.38-42.24,0,0-16.35-7.64-30.24-12.95-6.38-2.4-9.85-14.9-2.46-16.41Z"/><path class="cls-32" d="M371.88,191,391.2,213.5c-1.2,8.2-5.69,10.6-10.93,13.25L363.73,209.9Z"/><path class="cls-32" d="M373.9,250.18c-1.71-12.5-.76-17.68,2.08-34.73,1.07-23.74-5.74-32.89-20.9-28.16l-6.25,1.33c-18.5,8.9-27.65,7.95-25.32,27.21L324.4,255C323.32,276.63,373.83,275.56,373.9,250.18Z"/><path class="cls-25" d="M352.62,197.52l.69.13a4.48,4.48,0,0,0,5.31-3.41l3-13.58a4.47,4.47,0,0,0-3.41-5.3l-.7-.13a4.47,4.47,0,0,0-5.3,3.41l-4.74,12.63C346.87,193.67,350.22,197,352.62,197.52Z"/><path class="cls-25" d="M359.63,189.31a12.25,12.25,0,0,1-9.47-5.93s3.28,8.77,8.58,9.72Z"/><path class="cls-7" d="M359.63,189.82s4.61,7.13-2.53,9.78c-11.3,4.24-14.14-8.52-12.37-9.15l3.6-1.64a4.68,4.68,0,0,0,.82,6.44c2.52,2.33,7.19,3,9.34-.32Z"/><path class="cls-10" d="M453.33,370.08c-1.71-33.09-10.86-67.24-26.52-102.47a19.37,19.37,0,0,0-25.64-13.2l-9.4,3.6c-9.6,3.66-8.09,10.61-5.37,20.58,16.1,38.2,25.25,76.21,25.76,114Z"/><path class="cls-24" d="M393.09,259.33s12.06-2.14,27-18.62l10-8.21a3.34,3.34,0,0,1,4.61.38,3.3,3.3,0,0,1-.32,4.67l-9,8s.44,23.23-22.48,24.5Z"/><path class="cls-24" d="M398.52,259.65s-11,8.14-34.6,5.68l-14.46.38a2.91,2.91,0,0,0-2.78,2.84,2.84,2.84,0,0,0,2.72,2.84l13.7.7s20.33,11.3,39.71-2Z"/><path class="cls-10" d="M377.56,381.76l13.32,8.33a20.25,20.25,0,0,0,19.76,1.08c4.93-2.53,9.54-7.45,10.8-16.92,3.16-22.8-12.06-25.2-12.06-25.2S413.93,393.76,377.56,381.76Z"/><path class="cls-28" d="M447.9,380.24l12.37,11.94c1.77,1.7,5.75,2.14,8.78,1s4.16-3.47,2.4-5.24L459.07,376c-1.77-1.7-5.74-2.14-8.77-1S446.13,378.48,447.9,380.24Z"/><path class="cls-25" d="M431.48,243.68c2.15-.32,3.41-2.85,2.84-5.94-.44-2.65-1.45-5.49-3.72-6.63a14.42,14.42,0,0,0-9.73-1l-3,5.94a1.45,1.45,0,0,0,1.2,2.14c3,.19,8.15,1,9.22,4.23.32,1,1,1.58,1.7,1.52Z"/><path class="cls-28" d="M441.33,353.92a9.36,9.36,0,0,0,5.24-9.41,179.16,179.16,0,0,0-15.28-57.33,5.86,5.86,0,0,0-7.83-2.84,10.69,10.69,0,0,0-5.3,13.64,208.15,208.15,0,0,1,13.57,50.76A6.8,6.8,0,0,0,441.33,353.92Z"/><path class="cls-33" d="M401.8,251.69a6.66,6.66,0,0,1,5.5.64l10.35,6.56-6.56,17.87L400.29,270a8.78,8.78,0,0,1-4.67-6.56C394.73,258.32,397.51,253.08,401.8,251.69Z"/><path class="cls-34" d="M422.57,269.06c.72-5.25-2.23-10-6.58-10.59s-8.46,3.18-9.18,8.43,2.23,10,6.58,10.59S421.85,274.31,422.57,269.06Z"/><path class="cls-7" d="M410.83,269.44c.51,3,3,4.79,5.56,4s4.17-3.92,3.66-7-3-4.8-5.55-4S410.27,266.41,410.83,269.44Z"/><path class="cls-35" d="M339.68,214.57l1.13,38.58-5.68-10.42Z"/><path class="cls-25" d="M355.52,182.81c1.08,6.57,5.56,9,10.11,5.3s6.56-11.55,4.67-19.57c-1.52-6.5-4-7.95-8.53-4.29S354.51,176.24,355.52,182.81Z"/><path class="cls-25" d="M349.08,180c1.08,6.57,7.64,9.72,12.13,6.06s7.32-12,6.25-18.56-5.56-9-10.11-5.31S348,173.4,349.08,180Z"/><path class="cls-36" d="M347.13,181.36a2.94,2.94,0,1,0,2.46-3.35A3,3,0,0,0,347.13,181.36Z"/><path class="cls-37" d="M371,180.92s-5.55,27.4-20.26,3.09"/><path class="cls-25" d="M370.68,178.39a10.55,10.55,0,0,1-9.28,2.53,12.11,12.11,0,0,1-5.18-2.09l-3.54,3.73-2.27-5.81,12.37-5.94,7.27-2.71,1.89,4.23Z"/><path class="cls-24" d="M359.31,166.77s.32,16.55-11.36,12.95c0,0-9.41-8.53,1-18.38,9.15-8.71,18.62,1.52,18.62,1.52Z"/><path class="cls-23" d="M354.58,171.32a28,28,0,0,0-1.52,11.62,2.19,2.19,0,0,1-3.28,2.14,13.18,13.18,0,0,1-6.32-10.1c-1.76-13.07,7.64-15,7.64-15Z"/><path class="cls-34" d="M372.89,169.8s-4.11,5.31-16.36,4.23-13.19-4-13.19-4,.88-14.9,14.14-14.9C367.27,155,370.68,162.29,372.89,169.8Z"/><path class="cls-38" d="M372.45,168.67s4.29,3.15,2.33,5.3c-1.45,1.58-9.15,6-15.53,4.42-1.71-.44-3.28-2.84-4.86-4.61C354.32,173.78,366.83,175.61,372.45,168.67Z"/><path class="cls-38" d="M370.68,170.43s-2.09-13.32-15.79-15.15a9.73,9.73,0,0,0-5.36,2.21s11.74,4.23,13,16.16C362.53,173.65,368.34,173.15,370.68,170.43Z"/><path class="cls-39" d="M372.45,168.67s-2.91,6.69-18.06,5.11"/><path class="cls-24" d="M349.78,182.87a.63.63,0,0,0,1.26,0,.63.63,0,1,0-1.26,0Z"/><path class="cls-39" d="M386.59,351.26a6.5,6.5,0,0,0-5,3.29"/><path class="cls-39" d="M388.8,354.74a6.51,6.51,0,0,0-5.05,3.28"/><path class="cls-39" d="M400.67,339.58a6.5,6.5,0,0,0-5.05,3.29"/><path class="cls-39" d="M402.88,343.06a6.51,6.51,0,0,0-5.05,3.28"/><path class="cls-25" d="M356,276.07a5.36,5.36,0,0,0,6.81-2.15c1.2-2,1.9-4.42.19-6.57a17.9,17.9,0,0,0-4.79-4.29,6.21,6.21,0,0,0-5.37-.51l-3.22,1.2a1.71,1.71,0,0,0-.44,3c2.27,1.64,5,4.17,4.29,6.57a1.66,1.66,0,0,0,.88,2Z"/><path class="cls-25" d="M333.93,234.33c0,16,13.32,18.82,24.18,28.73l-9.53,1.45s-27.72-11.93-26.84-26.9S333.93,234.33,333.93,234.33Z"/><path class="cls-32" d="M339.11,217.73l-2.72,24.05c-.88,2.21-15.72,3.47-16.29.13-1.26-7.14-.94-36.81,8.46-43.76C336.14,192.47,341.44,205.35,339.11,217.73Z"/><path class="cls-40" d="M446.89,192.28h5.36a24.31,24.31,0,0,0,0-48.62h-5.36a24.31,24.31,0,0,0,0,48.62Z"/><path class="cls-41" d="M460.4,162H436"/><path class="cls-41" d="M460.4,174H436"/><path class="cls-10" d="M430,196.89c0,.38-2.34,5.56-4,9.16a1.64,1.64,0,0,1-3-.13l-3.35-9Z"/><path class="cls-10" d="M422.77,199.29h4.48a20.27,20.27,0,0,0,0-40.54h-4.48a20.27,20.27,0,1,0,0,40.54Z"/><path class="cls-41" d="M431.92,175.74l-6,10.29L418,171"/></g></g></svg>