<svg width="66" height="50" viewBox="0 0 66 50" fill="none" xmlns="http://www.w3.org/2000/svg">
<path d="M37.1367 43.8465C38.0084 43.8465 38.7179 43.137 38.7179 42.2653V41.6978H35.5657V42.2653C35.5556 43.137 36.2651 43.8465 37.1367 43.8465Z" fill="#1A231A"/>
<path d="M37.7753 42.0626L39.4071 49.0359H37.7753L36.2144 42.3059L37.7753 42.0626Z" fill="#4B524B"/>
<path d="M37.7752 48.4683H40.1571V49.0359H37.7752V48.4683Z" fill="#4B524B"/>
<path d="M46.5121 8.61521C46.583 8.61521 46.654 8.57467 46.6844 8.51385C46.7148 8.45304 46.7858 8.31114 46.3195 3.85149V3.82108L45.6404 2.39197C45.5898 2.29061 45.4783 2.25007 45.387 2.30075C45.2958 2.35143 45.2451 2.46292 45.2958 2.55414L45.9445 3.92244C46.1067 5.51372 46.3601 8.08816 46.3297 8.37196C46.2992 8.46318 46.3398 8.5544 46.431 8.59494C46.4513 8.61521 46.4817 8.61521 46.5121 8.61521Z" fill="#C9CCCE"/>
<path d="M6.92257 38.0895L21.082 40.2686C21.9334 40.3903 22.7341 39.8024 22.8557 38.951L23.0888 37.3496C23.2104 36.4982 22.6226 35.6975 21.7712 35.5759L7.62193 33.3967C6.77054 33.2751 5.96983 33.863 5.8482 34.7144L5.61509 36.3158C5.48332 37.1672 6.07118 37.9679 6.92257 38.0895Z" fill="#5F86AB"/>
<path d="M9.79089 31.2379C9.79089 31.2379 6.1725 35.0691 5.5745 41.8802C5.48328 42.9546 4.59135 43.7756 3.51698 43.7857C3.3244 43.7857 3.16223 43.6235 3.16223 43.431C3.16223 43.2384 3.3244 43.0762 3.51698 43.0762H3.61833C3.61833 43.0762 3.84132 34.3596 7.49012 29.8898L9.79089 31.2379Z" fill="#030D03"/>
<path d="M7.11848 42.8554C6.49164 38.8628 9.22016 35.1179 13.2128 34.4911C17.2055 33.8642 20.9503 36.5928 21.5772 40.5854C22.204 44.5781 19.4755 48.3229 15.4828 48.9498C11.4902 49.5766 7.74533 46.8481 7.11848 42.8554Z" fill="#4B524B"/>
<path d="M10.6626 38.9814C9.9024 38.4138 9.48685 37.6029 8.9598 36.7718C10.2977 35.3123 12.2133 34.4001 14.3519 34.4001C18.396 34.4001 21.6698 37.6739 21.6698 41.718C21.6698 41.8903 21.6597 42.0626 21.6495 42.2349C17.7575 42.6707 13.7539 41.4342 10.6626 38.9814Z" fill="#030D03"/>
<path d="M9.85829 42.4771C9.44032 39.9986 11.1107 37.6506 13.5891 37.2326C16.0675 36.8147 18.4155 38.485 18.8335 40.9634C19.2515 43.4419 17.5812 45.7899 15.1027 46.2079C12.6243 46.6258 10.2763 44.9555 9.85829 42.4771Z" fill="#030D03"/>
<path d="M12.466 43.6047C11.425 42.5637 11.425 40.8759 12.4659 39.8349C13.5069 38.7939 15.1947 38.7939 16.2357 39.8349C17.2767 40.8759 17.2767 42.5637 16.2357 43.6047C15.1947 44.6457 13.5069 44.6457 12.466 43.6047Z" fill="#C9CAC9"/>
<path d="M14.5141 42.8129C15.1425 42.8331 15.6696 42.3466 15.6899 41.7182L16.2473 33.1942C16.2676 32.5658 15.7811 32.0388 15.1527 32.0185C14.5243 31.9982 13.9972 32.4847 13.9769 33.1131L13.4195 41.6372C13.3992 42.2656 13.8857 42.7926 14.5141 42.8129Z" fill="#D8D9D8"/>
<path d="M13.9769 33.1028C13.9972 32.4744 14.5243 31.9879 15.1527 32.0082C15.7811 32.0285 16.2676 32.5555 16.2473 33.1839L16.1054 35.3022C15.3655 35.0995 14.6155 34.9374 13.8655 34.7955L13.9769 33.1028Z" fill="#6D706D"/>
<path d="M12.335 39.9747C12.5884 39.7112 13.0039 39.7213 13.4296 39.9038C13.7235 39.6605 14.0783 39.4882 14.4736 39.4173L25.197 37.38C25.5112 35.9712 28.1363 35.5962 28.8458 36.3057C29.6364 37.0962 29.2715 39.7213 29.2512 39.7315C29.1195 40.6842 28.3897 41.4849 27.3964 41.6775L15.3351 43.9681C14.281 44.1709 13.2472 43.6134 12.8113 42.6809C12.2843 41.7789 12.335 39.9747 12.335 39.9747Z" fill="#808BF6"/>
<path d="M15.0807 42.3262L27.4056 39.924C28.6624 39.6909 29.4834 38.4746 29.2502 37.2178C29.0171 35.961 27.8009 35.14 26.5441 35.3732L14.2192 37.7753C12.9624 38.0084 12.1414 39.2247 12.3745 40.4815C12.6076 41.7383 13.8239 42.5694 15.0807 42.3262Z" fill="#808BF6"/>
<path d="M18.9434 36.8225L26.5451 35.3833C27.8019 35.1502 29.008 35.9712 29.2513 37.228C29.3425 37.6841 29.2817 38.13 29.1195 38.5355C29.1803 38.6774 29.2209 38.8294 29.2513 38.9814C29.4844 40.2382 28.6634 41.4444 27.4066 41.6876L24.6903 42.2045C23.1294 40.0862 21.153 38.2415 18.9434 36.8225Z" fill="#808BF6"/>
<path d="M53.089 46.8827C50.2312 44.0249 50.2312 39.3915 53.089 36.5337C55.9468 33.6759 60.5802 33.6759 63.438 36.5337C66.2957 39.3915 66.2957 44.0249 63.438 46.8827C60.5802 49.7404 55.9468 49.7404 53.089 46.8827Z" fill="#4B524B"/>
<path d="M58.2592 34.4001C59.5363 34.4001 60.7323 34.7244 61.7762 35.3022C62.4654 35.6772 62.1512 36.7414 61.3708 36.6806C59.9822 36.5792 58.5734 36.7617 57.2355 37.2583C54.8334 38.1502 53.2522 40.1368 52.3907 42.4579C52.117 43.1978 51.0224 43.0457 50.9616 42.2653C50.9413 42.0018 50.9413 41.7382 50.9413 41.4747C51.0731 37.5421 54.3367 34.4001 58.2592 34.4001Z" fill="#030D03"/>
<path d="M53.8465 42.7944C53.2491 40.3531 54.7438 37.8898 57.1851 37.2924C59.6263 36.6949 62.0896 38.1896 62.6871 40.6309C63.2845 43.0721 61.7898 45.5355 59.3485 46.1329C56.9073 46.7303 54.444 45.2356 53.8465 42.7944Z" fill="#030D03"/>
<path d="M57.3172 44.198C55.941 43.6754 55.249 42.136 55.7716 40.7598C56.2943 39.3836 57.8336 38.6916 59.2098 39.2143C60.586 39.7369 61.278 41.2762 60.7554 42.6524C60.2327 44.0287 58.6934 44.7206 57.3172 44.198Z" fill="#C9CAC9"/>
<path d="M54.6713 32.8494C58.8066 31.1669 61.9587 33.0521 62.5567 33.7109C63.0128 34.2075 63.3879 34.765 63.1142 35.3833C63.1142 35.3934 63.1041 35.3934 63.1041 35.4035C62.8507 35.9813 57.2052 33.2649 51.4279 40.8666C51.0123 41.4139 50.0799 40.8261 50.0393 40.147C49.9076 38.0489 50.7285 34.4508 54.6713 32.8494Z" fill="#808BF6"/>
<path d="M63.2054 34.9779C63.2054 35.1096 63.175 35.2515 63.1142 35.3934C63.1142 35.4036 63.1041 35.4035 63.1041 35.4137C62.8507 35.9914 57.2052 33.2751 51.4279 40.8768C51.0124 41.4241 50.0799 40.8362 50.0393 40.1571C49.9887 39.4274 50.0596 38.5152 50.3333 37.5726C54.0429 34.9981 58.9485 33.8629 63.2054 34.9779Z" fill="#808BF6"/>
<path d="M56.7896 41.718C56.7896 42.5289 57.4484 43.1877 58.2592 43.1877C59.0701 43.1877 59.7289 42.5289 59.7289 41.718C59.7289 40.9072 59.0701 40.2484 58.2592 40.2484C57.4484 40.2484 56.7896 40.9072 56.7896 41.718Z" fill="#6D706D"/>
<path d="M58.7256 42.6708C59.2222 42.387 59.3945 41.7586 59.1107 41.2619L52.9078 30.9743C52.624 30.4777 51.9956 30.3054 51.4989 30.5892C51.0023 30.8729 50.83 31.5014 51.1138 31.998L57.3167 42.2856C57.6005 42.7822 58.2289 42.9546 58.7256 42.6708Z" fill="#D8D9D8"/>
<path d="M51.4988 30.5892C51.9955 30.3054 52.6239 30.4777 52.9077 30.9743L54.6307 33.8325C54.0631 34.238 53.5462 34.7346 53.1003 35.2921L51.1238 32.0081C50.84 31.5014 51.0123 30.8729 51.4988 30.5892Z" fill="#6D706D"/>
<path d="M4.62185 24.9132H21.4469V22.8354H4.62185C4.04412 22.8354 3.57788 23.3017 3.57788 23.8794C3.57788 24.447 4.04412 24.9132 4.62185 24.9132Z" fill="#0B130B"/>
<path d="M43.9593 3.06358C42.9902 2.62507 42.4947 1.62876 42.8524 0.838243C43.2102 0.0477301 44.2857 -0.237626 45.2547 0.200883C46.2237 0.639392 46.7193 1.63571 46.3615 2.42622C46.0038 3.21674 44.9283 3.50209 43.9593 3.06358Z" fill="#081820"/>
<path d="M40.5048 4.71995C39.0934 4.47232 38.0708 3.57884 38.2207 2.72429C38.3707 1.86975 39.6364 1.37774 41.0477 1.62537C42.4591 1.87299 43.4817 2.76648 43.3318 3.62102C43.1819 4.47557 41.9162 4.96757 40.5048 4.71995Z" fill="#081820"/>
<path d="M45.9951 7.95644C45.9242 7.90576 43.8363 9.12203 43.8363 9.12203C43.5119 9.80111 44.0694 12.5479 44.7687 12.9837C45.4681 13.4195 47.627 9.32474 45.9951 7.95644Z" fill="#808BF6"/>
<path d="M44.77 12.9798L48.3903 12.3843L49.2078 17.3547L45.5875 17.9502L44.77 12.9798Z" fill="#13222A"/>
<path d="M46.502 26.8998L44.8398 21.0009C44.1303 18.4873 45.7013 15.9129 48.2453 15.3655L50.3535 25.4707L46.502 26.8998Z" fill="#808BF6"/>
<path d="M32.8088 42.3059H32.079C29.5856 42.3059 27.1835 41.3734 25.349 39.6909C23.3624 37.8767 20.7272 35.657 18.9636 34.9373C15.8013 33.64 11.3923 33.9643 7.75363 31.0453C4.11496 28.1262 5.9799 24.9133 5.9799 24.9133H31.0553L29.9303 30.2953L34.025 37.7753L32.8088 42.3059Z" fill="#808BF6"/>
<path d="M26.0888 31.3696L26.8794 27.812H30.4573L29.9505 30.2851C29.9404 30.2952 28.7241 31.7243 26.0888 31.3696Z" fill="#808BF6"/>
<path d="M24.0923 28.1972H21.5178C19.5009 28.1972 17.5548 27.4573 16.0345 26.1295L15.2845 25.4707H7.21656L7.48008 24.9133H18.0008C18.0211 24.9133 20.3421 27.2343 24.0923 28.1972Z" fill="#808BF6"/>
<path d="M34.0454 37.7854L29.9506 30.3054C29.9506 30.3054 29.5452 30.6804 27.7918 30.8324C27.3559 30.873 26.9505 30.8932 26.6262 30.9135C26.1903 30.9338 25.9471 31.4203 26.2005 31.7852C27.4978 33.6298 30.2547 37.9679 33.6096 37.8158L34.0454 37.7854Z" fill="#808BF6"/>
<path d="M43.5322 37.7753L47.4243 21.6192C47.4243 21.6192 48.4175 22.278 49.2385 27.2749C50.0494 32.2717 48.8635 37.3192 47.2824 38.5557C45.7012 39.7923 43.5322 37.7753 43.5322 37.7753Z" fill="#808BF6"/>
<path d="M49.8569 15.4872L54.357 25.4707C54.6003 25.9775 54.7017 26.5451 54.6408 27.1026L53.9009 31.3088C53.9009 31.3088 52.0867 32.5048 50.9312 35.434C50.3332 36.9543 49.5731 38.6875 49.1474 40.5525C48.9142 41.5863 48.002 42.3262 46.9378 42.3262L48.2352 26.5451L46.7047 15.7609C46.6439 14.5345 47.698 12.4263 49.8569 15.4872Z" fill="#808BF6"/>
<path d="M32.8189 42.316H46.7857C47.9108 42.316 48.823 41.4038 48.823 40.2788V37.7753H31.481L32.8189 42.316Z" fill="#808BF6"/>
<path d="M34.5522 38.5456H47.3433V37.7753H33.7819C33.7819 38.201 34.1265 38.5456 34.5522 38.5456Z" fill="#0B130B"/>
<path d="M53.0495 23.6665H52.9076C52.6846 23.6665 52.492 23.5348 52.4008 23.3422L49.8162 17.4129C49.7047 17.1595 49.796 16.8656 50.0392 16.7237C50.2723 16.5818 50.5663 16.6831 50.6778 16.9163L53.4549 23.028C53.5867 23.3321 53.3738 23.6665 53.0495 23.6665Z" fill="white"/>
<path d="M50.992 9.32472C50.992 9.32472 49.1879 7.37869 46.7047 6.73001C45.4986 6.41581 44.8398 8.37197 44.7992 10.2977C44.7688 11.6863 44.9715 12.862 45.8229 13.3181C46.6743 13.7742 49.4616 12.6897 50.3231 11.8992C51.1846 11.1086 51.5394 9.84163 50.992 9.32472Z" fill="#808BF6"/>
<path d="M45.8229 6.95303C46.0762 6.74018 46.36 6.64896 46.7047 6.74018C49.1879 7.38886 50.992 9.32475 50.992 9.32475C51.2454 9.568 51.3062 9.96329 51.2048 10.4093C49.2487 9.58827 47.2722 8.46323 45.8229 6.95303Z" fill="#5B67E2"/>
<path d="M24.0922 28.1972H30.2749C31.6737 28.1972 32.8088 27.062 32.8088 25.6633C32.8088 24.0518 31.5013 22.7443 29.8898 22.7443H19.1968C18.0616 22.7443 17.3825 24.0112 18.0109 24.9538C19.3792 26.9809 21.6597 28.1972 24.0922 28.1972Z" fill="#0B130B"/>
<path d="M31.7648 24.9132H21.2238C20.3724 24.9132 19.6933 24.224 19.6933 23.3828V23.1801H29.6768C29.9302 23.1801 30.1735 23.2409 30.3965 23.3726C30.8728 23.6463 31.6431 24.2037 31.7648 24.9132Z" fill="#3F453F"/>
<path d="M5.98003 24.9133H7.50037C6.7402 26.6465 6.75034 28.5114 7.01386 30.3763C4.37861 27.66 5.98003 24.9133 5.98003 24.9133Z" fill="#D42D36"/>
<path d="M51.2252 10.3079C51.134 10.8349 50.8097 11.4329 50.3232 11.889C49.4718 12.6897 46.6845 13.7641 45.823 13.308C45.1641 12.9634 44.9006 12.1829 44.8195 11.2201C47.0088 11.7268 49.5529 11.5444 51.2252 10.3079Z" fill="#808BF6"/>
<path d="M45.0425 12.2945H46.7047C47.0696 12.2945 47.3635 12.0005 47.3635 11.6356V10.2369C47.3635 9.87206 47.0696 9.57812 46.7047 9.57812H45.0425C44.6776 9.57812 44.3837 9.87206 44.3837 10.2369V11.6356C44.3837 12.0005 44.6776 12.2945 45.0425 12.2945Z" fill="#0B130B"/>
<path d="M45.8736 10.5005C45.8837 10.5005 45.904 10.5005 45.9141 10.4903C46.0155 10.4701 46.0864 10.3586 46.056 10.2572L44.6066 4.14546L41.4849 2.99001C41.3835 2.94947 41.272 3.00014 41.2416 3.1015C41.2011 3.20286 41.2517 3.31435 41.3531 3.34475L44.2823 4.42926L45.681 10.3383C45.7114 10.4397 45.7823 10.5005 45.8736 10.5005Z" fill="#C9CCCE"/>
<path d="M44.0635 2.83275C43.2475 2.46348 42.8292 1.62665 43.1293 0.963644C43.4293 0.300633 44.334 0.062509 45.15 0.43178C45.9661 0.80105 46.3843 1.63788 46.0843 2.30089C45.7843 2.9639 44.8795 3.20202 44.0635 2.83275Z" fill="white"/>
<path d="M43.1268 0.962851C43.4309 0.304038 44.3329 0.0607847 45.1438 0.425665C45.1539 0.435801 45.1641 0.435801 45.1843 0.445936C44.708 1.19597 44.3735 2.01695 44.191 2.87847C44.1505 2.8582 44.11 2.84807 44.0593 2.8278C43.2484 2.46292 42.8329 1.6318 43.1268 0.962851Z" fill="#7DB2D6"/>
<path d="M4.12513 22.8356H17.6156C18.7508 22.8356 19.6731 21.9133 19.6731 20.7781V13.0345C19.6731 8.14917 15.7101 4.18616 10.8247 4.18616H3.84134C1.74327 4.18616 0.0404968 5.88893 0.0404968 7.987V18.751C0.0404968 21.0011 1.8649 22.8356 4.12513 22.8356Z" fill="#808BF6"/>
<path d="M3.83129 4.17584H10.8147C12.7911 4.17584 14.6257 4.82452 16.0953 5.91916H0.638589C1.31767 4.8752 2.4934 4.17584 3.83129 4.17584Z" fill="#808BF6"/>
<path d="M4.05416 4.17584H4.81433V22.8354H4.05416V4.17584Z" fill="#808BF6"/>
<path d="M19.6731 20.7779C19.6731 21.9131 18.7508 22.8355 17.6156 22.8355H4.12513C2.36154 22.8355 0.861473 21.7205 0.283745 20.1597H19.663L19.6731 20.7779Z" fill="#808BF6"/>
<path d="M4.19617e-05 10.5512H11.2809L11.0478 8.36188L17.7778 13.0141L12.0512 17.6765L11.8587 15.8115H0.0405865L4.19617e-05 10.5512Z" fill="white"/>
<path d="M-5.24521e-05 10.5511H5.7975C7.1962 12.3856 8.66586 14.0884 10.0747 15.8114H0.040493L-5.24521e-05 10.5511Z" fill="#D4E2F7"/>
<path d="M4.05416 10.5511H4.81433V15.7608H4.05416V10.5511Z" fill="#99BAEC"/>
<path d="M7.49011 24.9133C7.49011 24.9133 7.85499 24.9335 8.09825 25.866C8.3415 26.7985 7.0036 30.3662 7.0036 30.3662C7.0036 30.3662 6.27384 27.0012 7.49011 24.9133Z" fill="#FFDB49"/>
<path d="M47.6271 21.6901L45.6709 22.055C45.4074 22.1057 45.3162 22.4503 45.5392 22.6124C45.681 22.7138 45.8736 22.805 46.1169 22.8354C46.796 22.9165 47.4142 22.6023 47.8805 22.2577C48.144 22.0651 47.9616 21.6293 47.6271 21.6901Z" fill="#003172"/>
<path d="M4.83053 33.8865L5.37366 34.012L4.03838 39.789L3.49525 39.6634L4.83053 33.8865Z" fill="#CBCDCB"/>
<path d="M4.83472 33.8832L4.3178 33.8528L3.17248 39.0625L3.49682 39.6605L4.83472 33.8832Z" fill="#787E78"/>
<path d="M46.9378 17.0278C47.9615 19.6833 49.1879 23.5247 50.4143 26.0788C49.9987 31.1669 49.3501 36.184 48.6913 41.3531C48.6913 41.4038 48.6811 41.4444 48.6811 41.495C48.2656 42.0018 47.6372 42.316 46.9378 42.316L48.2352 26.5349L46.9378 17.0278Z" fill="#808BF6"/>
<path d="M47.0392 41.0896H27.4978C27.4978 41.0896 29.6567 42.316 32.819 42.316H46.9378L47.0392 41.0896Z" fill="#808BF6"/>
<path d="M45.0877 12.8881C44.3668 12.6614 43.9662 11.8933 44.1929 11.1724C44.4196 10.4516 45.1878 10.051 45.9086 10.2777C46.6295 10.5044 47.0301 11.2725 46.8034 11.9934C46.5767 12.7142 45.8085 13.1148 45.0877 12.8881Z" fill="#3A413A"/>
<path d="M44.5559 11.585C44.5559 12.1019 44.9816 12.5276 45.4986 12.5276C46.0155 12.5276 46.4412 12.1019 46.4412 11.585C46.4412 11.0681 46.0155 10.6424 45.4986 10.6424C44.9816 10.6424 44.5559 11.058 44.5559 11.585Z" fill="#0B130B"/>
<path d="M50.3941 20.6259L52.2185 24.9335C52.3706 25.2882 52.4314 25.6835 52.3908 26.0687L52.3604 26.3728C52.3402 26.6059 52.0158 26.6565 51.9246 26.4336L49.117 19.815C49.0258 19.6022 49.2691 19.4096 49.4515 19.5414L49.6035 19.6529C49.9583 19.9063 50.232 20.2407 50.3941 20.6259Z" fill="white"/>
<path d="M53.3637 22.8456L53.4549 23.0381C53.5867 23.3321 53.3738 23.6665 53.0495 23.6665H52.9076C52.6846 23.6665 52.492 23.5348 52.4008 23.3422L50.546 19.0853C51.4785 20.3522 52.4414 21.5786 53.3637 22.8456Z" fill="#BDC9D3"/>
</svg>
