<svg width="230" height="302" viewBox="0 0 230 302" fill="none" xmlns="http://www.w3.org/2000/svg">
<path d="M121.431 28.7184C121.431 28.7184 121.557 27.0768 120.863 36.1688C120.737 37.9366 119.158 39.1994 117.58 38.3155C114.991 36.737 111.96 33.7695 111.266 28.2133C109.498 15.1435 116.696 19.6264 116.696 19.6264L121.431 28.7184Z" fill="#445A8C"/>
<path d="M105.52 44.819C105.52 44.819 102.995 44.6927 101.795 44.8821C100.595 45.0716 88.2834 36.3584 93.4608 24.9303C96.744 17.7325 110.382 24.1095 110.382 24.1095L105.52 44.819Z" fill="#101B33"/>
<path d="M124.399 54.3528L142.835 78.7875C142.835 78.7875 157.357 84.47 169.606 87.3112L168.343 95.393L145.361 92.8043C141.257 92.236 137.469 90.3419 134.501 87.4375C129.703 82.7021 122.694 75.0623 119.853 68.6221C112.971 53.0269 118.022 63.571 118.022 63.571L124.399 54.3528Z" fill="#F9E3CD"/>
<path d="M43.0132 187.071L121.179 236.129C131.407 242.569 144.288 243.011 154.895 237.392L191.768 217.945L94.7238 160.3L43.0132 187.071Z" fill="#101B33"/>
<path d="M39.4772 162.32L55.6407 153.544C60.1235 151.208 66.1217 151.65 72.7513 155.375C72.9407 155.501 73.067 155.564 73.2564 155.69C87.0207 163.772 98.1962 182.966 98.4488 198.941C98.4488 199.761 98.4488 200.582 98.3856 201.403C98.1331 205.254 97.186 208.474 95.6707 211C94.1553 213.589 92.0086 215.42 89.4199 216.367L75.34 224.07L68.2684 210.369C60.3761 204.055 53.8097 194.268 50.4002 184.229C48.948 179.999 48.0641 175.642 47.8746 171.538C47.8746 171.223 47.8746 170.907 47.8746 170.654L47.1801 169.265L39.4772 162.32Z" fill="#101B33"/>
<path d="M57.9769 185.113C57.9138 185.113 57.9138 185.05 57.8506 185.05C53.7466 182.714 50.4634 184.734 50.5265 189.47C50.5897 194.142 53.8729 199.824 57.9138 202.16C57.9769 202.16 57.9769 202.224 58.04 202.224C62.1441 204.56 65.4273 202.539 65.3642 197.804C65.3642 193.132 62.0178 187.512 57.9769 185.113Z" fill="#34456B"/>
<path d="M58.04 176.274C66.248 181.072 73.0039 192.627 73.1302 202.224C73.2564 211.947 66.5637 215.925 58.1663 211.253C58.04 211.19 57.9769 211.126 57.8506 211.063C49.5794 206.202 42.8867 194.71 42.7604 185.113C42.6341 175.39 49.3268 171.412 57.7243 176.084C57.8506 176.148 57.9769 176.211 58.04 176.274ZM57.9137 202.161C57.9769 202.161 57.9769 202.224 58.04 202.224C62.144 204.56 65.4272 202.54 65.3641 197.804C65.301 193.132 62.0177 187.449 57.9769 185.05C57.9137 185.05 57.9137 184.987 57.8506 184.987C53.7466 182.651 50.4633 184.671 50.5265 189.407C50.5896 194.142 53.8728 199.825 57.9137 202.161Z" fill="white"/>
<path d="M58.1033 163.899C71.8675 171.98 83.0431 191.175 83.2957 207.149C83.2957 207.97 83.2957 208.79 83.2325 209.611C82.98 213.463 82.0329 216.683 80.5176 219.208C76.4136 226.09 68.0792 227.669 58.3559 222.176C58.1664 222.049 57.977 221.986 57.8507 221.86C47.938 216.051 39.3511 204.434 35.2471 192.437C33.7949 188.207 32.911 183.851 32.7215 179.747C32.7215 179.368 32.7215 178.989 32.6584 178.61C32.469 162.447 43.5814 155.691 57.5351 163.583C57.7876 163.709 57.9139 163.772 58.1033 163.899ZM57.9139 211.063C58.0402 211.126 58.1033 211.19 58.2296 211.253C66.627 215.988 73.2566 211.947 73.1935 202.224C73.0672 192.627 66.3113 181.136 58.1033 176.274C57.977 176.211 57.9139 176.148 57.7876 176.084C49.3902 171.349 42.6975 175.39 42.8237 185.113C42.95 194.647 49.6427 206.202 57.9139 211.063Z" fill="#34456B"/>
<path d="M30.0066 165.856C31.8376 153.291 36.9518 129.488 50.5267 117.113C69.4683 99.8127 95.4183 147.482 95.4183 147.482L90.8723 162.068C98.3227 173.054 106.404 190.227 103.753 208.601L86.5789 214.22L34.4263 177.852C30.638 175.2 28.8701 170.591 29.9434 166.108C30.0066 165.982 30.0066 165.919 30.0066 165.856Z" fill="#808BF6"/>
<path d="M44.4652 120.585L75.9083 102.401C79.7598 100.192 79.7598 94.6353 75.9083 92.4254L42.3185 73.0418C40.5506 72.0316 38.3408 72.0316 36.5729 73.0418L2.98308 92.4254C-0.868383 94.6353 -0.868383 100.192 2.98308 102.401L34.4262 120.585C37.5831 122.353 41.3714 122.353 44.4652 120.585Z" fill="#5F6BDE"/>
<path d="M0.0786133 97.0348H78.8126V58.5201H0.0786133V97.0348Z" fill="#5F6BDE"/>
<path d="M44.465 81.6919L75.9081 63.5079C79.7595 61.2981 79.7595 55.7419 75.9081 53.532L42.3183 34.1484C40.5504 33.1382 38.3405 33.1382 36.5726 34.1484L2.98284 53.532C-0.868628 55.7419 -0.868628 61.2981 2.98284 63.5079L34.4259 81.6919C37.5829 83.4598 41.3712 83.4598 44.465 81.6919Z" fill="#808BF6"/>
<path d="M170.68 238.023L186.843 229.247C191.326 226.911 197.324 227.353 203.954 231.078C204.143 231.204 204.269 231.267 204.459 231.394C218.223 239.475 229.399 258.67 229.651 274.644C229.651 275.465 229.651 276.285 229.588 277.106C229.335 280.958 228.388 284.178 226.873 286.703C225.358 289.292 223.211 291.123 220.622 292.07L206.605 299.836L199.534 286.135C191.642 279.821 185.075 270.035 181.666 259.996C180.213 255.765 179.33 251.409 179.14 247.305C179.14 246.989 179.14 246.673 179.14 246.421L178.446 245.032L170.68 238.023Z" fill="#101B33"/>
<path d="M189.179 260.817C189.116 260.817 189.116 260.753 189.053 260.753C184.949 258.417 181.666 260.438 181.729 265.173C181.792 269.845 185.075 275.528 189.116 277.864C189.179 277.864 189.179 277.927 189.242 277.927C193.346 280.263 196.63 278.243 196.566 273.507C196.566 268.835 193.22 263.216 189.179 260.817Z" fill="#34456B"/>
<path d="M189.306 251.977C197.514 256.776 204.269 268.33 204.396 277.927C204.522 287.65 197.829 291.628 189.432 286.956C189.306 286.893 189.242 286.83 189.116 286.766C180.845 281.905 174.152 270.414 174.026 260.816C173.9 251.093 180.592 247.115 188.99 251.788C189.053 251.851 189.179 251.914 189.306 251.977ZM189.179 277.864C189.242 277.864 189.242 277.927 189.306 277.927C193.41 280.263 196.693 278.243 196.63 273.507C196.566 268.835 193.283 263.153 189.242 260.753C189.179 260.753 189.179 260.69 189.116 260.69C185.012 258.354 181.729 260.375 181.792 265.11C181.792 269.845 185.138 275.528 189.179 277.864Z" fill="white"/>
<path d="M189.306 239.602C203.07 247.684 214.245 266.878 214.498 282.852C214.498 283.673 214.498 284.494 214.435 285.315C214.182 289.166 213.235 292.386 211.72 294.912C207.616 301.794 199.281 303.372 189.558 297.879C189.369 297.753 189.179 297.69 189.053 297.563C179.14 291.755 170.553 280.137 166.449 268.141C164.997 263.91 164.113 259.554 163.924 255.45C163.924 255.071 163.924 254.692 163.861 254.313C163.671 238.15 174.784 231.394 188.737 239.286C188.99 239.413 189.116 239.476 189.306 239.602ZM189.116 286.767C189.242 286.83 189.306 286.893 189.432 286.956C197.829 291.692 204.459 287.651 204.396 277.927C204.269 268.33 197.514 256.839 189.306 251.977C189.179 251.914 189.116 251.851 188.99 251.788C180.592 247.052 173.9 251.093 174.026 260.817C174.152 270.351 180.845 281.905 189.116 286.767Z" fill="#34456B"/>
<path d="M218.918 260.122L212.351 262.774C210.646 263.468 208.815 263.658 207.048 263.342L160.199 255.45C157.231 254.882 160.009 246.168 160.577 244.59C162.409 238.907 173.963 222.807 194.862 225.648C206.669 227.227 217.024 236.698 223.274 245.474C226.936 250.588 224.79 257.786 218.918 260.122Z" fill="#808BF6"/>
<path d="M124.399 143.884C124.399 143.884 116.507 171.538 136.964 185.429L103.753 208.538C103.753 208.538 77.4868 182.082 83.8639 150.766C92.9558 106.505 124.399 143.884 124.399 143.884Z" fill="#A9B0F9"/>
<path d="M46.7383 127.468L92.5771 156.259C95.5446 158.153 99.3329 158.279 102.427 156.638L119.095 147.861C125.914 144.262 126.167 134.602 119.537 130.624L72.4358 102.654C69.5314 100.886 65.8694 100.823 62.8387 102.401L47.4329 110.42C40.677 113.83 40.2982 123.363 46.7383 127.468Z" fill="#101B33"/>
<path d="M82.6011 211.947L95.4814 203.234L157.231 242.759L147.823 241.243C141.573 244.527 133.996 244.211 128.061 240.486L121.179 236.192L82.6011 211.947Z" fill="#808BF6"/>
<path d="M113.034 138.327C111.077 138.327 71.4255 152.597 71.4255 119.765C71.4887 86.9325 122.063 124.437 122.063 124.437L113.034 138.327Z" fill="#616DE1"/>
<path d="M158.873 209.548L145.866 196.352C144.098 195.279 140.12 194.837 137.405 195.152C136.206 195.279 135.259 196.289 135.133 197.488L134.88 200.14C134.438 203.929 134.754 204.497 137.09 205.823L150.854 214.031C153.19 215.42 156.726 215.609 158.746 214.473L159.315 214.157C161.398 212.957 161.209 210.937 158.873 209.548Z" fill="#C6D2F2"/>
<path d="M158.873 206.707L145.866 193.511C144.098 192.437 140.12 191.995 137.405 192.311C136.206 192.437 135.259 193.448 135.133 194.647L134.88 197.299C134.438 201.087 134.754 201.656 137.09 202.981L150.854 211.189C153.19 212.579 156.726 212.768 158.746 211.631L159.315 211.316C161.398 210.179 161.209 208.096 158.873 206.707Z" fill="#3F5A96"/>
<path d="M136.143 194.773C136.143 198.688 145.614 198.688 145.614 194.773V182.146H136.143V194.773Z" fill="#C6D2F2"/>
<path d="M144.225 218.893L131.976 206.454C130.271 205.318 126.356 204.623 123.641 204.813C122.442 204.876 121.431 205.886 121.305 207.086L119.979 207.654C119.348 211.379 119.664 213.778 121.873 215.231L136.143 224.323C138.416 225.838 141.952 226.154 144.035 225.143L144.603 224.828C146.687 223.817 146.498 220.345 144.225 218.893Z" fill="#C6D2F2"/>
<path d="M143.403 217.377L131.091 203.55C129.387 202.413 125.472 201.719 122.757 201.908C121.557 201.971 120.547 202.981 120.421 204.181L120.042 206.77C119.411 210.495 119.726 211.063 121.936 212.578L135.259 221.418C137.532 222.933 141.067 223.249 143.151 222.239L143.719 221.923C145.803 220.913 145.676 218.829 143.403 217.377Z" fill="#3F5A96"/>
<path d="M121.432 203.802C121.432 207.717 130.902 207.654 130.902 203.802V191.175H121.432V203.802Z" fill="#C6D2F2"/>
<path d="M115.118 106.379C115.118 106.379 145.235 121.154 145.992 132.456C146.498 139.401 147.887 176.59 147.192 186.124C147.066 187.513 146.308 188.712 145.045 189.28C142.141 190.67 136.901 192.185 135.133 186.25C132.67 177.915 133.491 149.377 127.619 141.232C121.684 133.087 92.3877 121.533 92.3877 121.533L115.118 106.379Z" fill="#616DE1"/>
<path d="M97.5649 120.396C97.5649 120.396 122 130.435 130.902 144.01C134.501 149.503 133.175 185.113 132.796 194.458C132.733 195.91 131.912 197.173 130.587 197.804C127.682 199.193 121.368 200.961 120.737 195.279C119.6 185.555 109.94 169.392 114.36 153.039C114.36 153.039 98.0069 145.399 84.1164 140.095C77.7394 137.696 74.2667 125.195 81.654 123.679L97.5649 120.396Z" fill="#616DE1"/>
<path d="M120.042 48.2915L139.363 70.7689C138.163 78.9769 133.68 81.3762 128.44 84.028L111.897 67.17L120.042 48.2915Z" fill="#C4C9FF"/>
<path d="M122.063 107.453C120.358 94.951 121.305 89.7737 124.146 72.7262C125.22 48.986 118.401 39.8309 103.248 44.5663L96.9968 45.8922C78.4972 54.7948 69.3421 53.8477 71.6782 73.105L72.5621 112.314C71.4887 133.908 122 132.834 122.063 107.453Z" fill="#C4C9FF"/>
<path d="M100.785 54.7948L101.48 54.9211C103.879 55.4262 106.278 53.9109 106.783 51.5116L109.751 37.9368C110.256 35.5375 108.741 33.1382 106.341 32.6331L105.647 32.5068C103.247 32.0017 100.848 33.5171 100.343 35.9163L95.6077 48.5441C95.0394 50.9434 98.3858 54.2897 100.785 54.7948Z" fill="#F9E3CD"/>
<path d="M107.794 46.5869C107.794 46.5869 101.922 46.4606 98.3228 40.6519C98.3228 40.6519 101.606 49.4281 106.91 50.3752L107.794 46.5869Z" fill="#F9E3CD"/>
<path d="M107.793 47.0919C107.793 47.0919 112.403 54.2266 105.268 56.8784C93.966 61.1087 91.1248 48.3547 92.8927 47.7233L96.4916 46.0817C96.4916 46.0817 93.9029 49.428 97.3124 52.5218C99.8379 54.8579 104.51 55.5525 106.657 52.2061L107.793 47.0919Z" fill="white"/>
<path d="M201.491 227.353C199.786 194.268 190.631 160.11 174.973 124.879C172.068 113.703 160.072 107.579 149.339 111.683L139.931 115.282C130.334 118.944 131.849 125.889 134.564 135.865C150.664 174.064 159.82 212.073 160.325 249.83L201.491 227.353Z" fill="#808BF6"/>
<path d="M141.257 116.608C141.257 116.608 153.317 114.461 168.217 97.9817L178.193 89.7737C179.582 88.6372 181.603 88.8266 182.802 90.1525C184.002 91.5416 183.876 93.6252 182.487 94.8248L173.458 102.843C173.458 102.843 173.9 126.078 150.98 127.341L141.257 116.608Z" fill="#101B33"/>
<path d="M146.687 116.923C146.687 116.923 135.701 125.068 112.087 122.606L97.6281 122.985C96.1128 123.048 94.85 124.311 94.85 125.826C94.85 127.341 96.0496 128.604 97.565 128.667L111.266 129.362C111.266 129.362 131.597 140.664 150.98 127.404L146.687 116.923Z" fill="#101B33"/>
<path d="M125.725 239.034L139.047 247.368C145.045 251.093 152.559 251.598 158.81 248.441C163.735 245.916 168.344 240.991 169.606 231.52C172.763 208.727 157.547 206.328 157.547 206.328C157.547 206.328 162.093 251.03 125.725 239.034Z" fill="#808BF6"/>
<path d="M196.062 237.518L208.437 249.451C210.205 251.156 214.182 251.598 217.213 250.462C220.307 249.325 221.38 246.989 219.612 245.221L207.237 233.288C205.469 231.583 201.491 231.141 198.461 232.278C195.367 233.414 194.294 235.75 196.062 237.518Z" fill="#A9B0F9"/>
<path d="M179.645 100.949C181.792 100.634 183.055 98.108 182.486 95.0142C182.044 92.3624 181.034 89.5211 178.761 88.3846C174.026 85.9222 169.038 87.3744 169.038 87.3744L166.007 93.3094C165.502 94.2565 166.134 95.393 167.207 95.4562C170.238 95.6456 175.352 96.4664 176.425 99.6865C176.741 100.634 177.435 101.265 178.13 101.202L179.645 100.949Z" fill="#F9E3CD"/>
<path d="M189.495 211.189C193.094 209.485 195.114 205.696 194.736 201.782C192.589 180.757 187.411 161.689 179.456 144.452C178.067 141.484 174.594 140.221 171.627 141.611C166.513 144.073 164.24 150.008 166.323 155.249C172.89 171.601 177.625 188.523 179.898 206.012C180.529 210.495 185.391 213.147 189.495 211.189Z" fill="#A9B0F9"/>
<path d="M149.97 108.968C151.927 108.337 153.821 108.652 155.463 109.599L165.818 116.166L159.251 134.034L148.455 127.278C146.182 126.205 144.351 123.869 143.782 120.712C142.898 115.598 145.677 110.357 149.97 108.968Z" fill="#28395E"/>
<path d="M170.738 126.331C171.456 121.08 168.51 116.339 164.157 115.744C159.803 115.148 155.692 118.922 154.973 124.174C154.254 129.425 157.201 134.165 161.554 134.761C165.907 135.357 170.019 131.583 170.738 126.331Z" fill="#6076A8"/>
<path d="M158.999 126.71C159.504 129.74 162.03 131.508 164.555 130.751C167.081 129.93 168.722 126.836 168.217 123.805C167.712 120.775 165.187 119.007 162.661 119.764C160.072 120.585 158.431 123.679 158.999 126.71Z" fill="white"/>
<path d="M87.8415 71.8423L88.978 110.42L83.2955 100.002L87.8415 71.8423Z" fill="#C3C9FF"/>
<path d="M103.689 40.0836C104.763 46.65 109.246 49.0493 113.792 45.3873C118.338 41.7252 120.358 33.8329 118.464 25.8143C116.948 19.311 114.486 17.8588 109.94 21.5208C105.457 25.1829 102.679 33.5172 103.689 40.0836Z" fill="#F9E3CD"/>
<path d="M97.2493 37.2422C98.3226 43.8087 104.889 46.9656 109.372 43.3036C113.918 39.6415 116.696 31.3072 115.623 24.7408C114.549 18.1743 110.066 15.7751 105.52 19.4371C101.038 23.0992 96.1759 30.6758 97.2493 37.2422Z" fill="#F9E3CD"/>
<path d="M95.292 38.6312C95.5446 40.2096 97.0599 41.3461 98.6384 41.0936C100.217 40.841 101.353 39.3257 101.101 37.7472C100.848 36.1688 99.3329 35.0323 97.7544 35.2848C96.176 35.5374 95.0395 37.0527 95.292 38.6312Z" fill="#ED5353"/>
<path d="M119.158 38.1892C119.158 38.1892 113.602 65.5914 98.8909 41.283" stroke="#0F1A5C" stroke-width="0.700019" stroke-miterlimit="10" stroke-linecap="round" stroke-linejoin="round"/>
<path d="M118.843 35.6637C118.843 35.6637 115.307 39.3257 109.561 38.1892C106.026 37.4947 104.384 36.1057 104.384 36.1057L100.848 39.8309L98.5752 34.0221L110.95 28.087L118.211 25.3721L120.105 29.6024L118.843 35.6637Z" fill="#F9E3CD"/>
<path d="M107.478 24.0464C107.478 24.0464 107.793 40.5887 96.1126 36.9898C96.1126 36.9898 86.705 28.4661 97.1229 18.6164C106.278 9.90329 115.749 20.1318 115.749 20.1318L107.478 24.0464Z" fill="#101B33"/>
<path d="M102.742 28.5924C102.742 28.5924 100.532 34.4011 101.227 40.2099C101.479 41.9778 99.5222 43.2406 97.9437 42.3566C95.355 40.7781 92.3243 37.8106 91.6298 32.2544C89.8619 19.1847 99.2696 17.2905 99.2696 17.2905L102.742 28.5924Z" fill="#445A8C"/>
<path d="M121.053 27.077C121.053 27.077 116.949 32.3806 104.7 31.3073C92.3876 30.1708 91.5037 27.2664 91.5037 27.2664C91.5037 27.2664 92.3876 12.3656 105.647 12.3656C115.433 12.3025 118.843 19.5635 121.053 27.077Z" fill="#6076A8"/>
<path d="M120.611 25.9404C120.611 25.9404 124.904 29.0974 122.947 31.2441C121.495 32.8225 113.792 37.2423 107.415 35.6638C105.71 35.2218 104.131 32.8225 102.553 31.0547C102.49 31.0547 114.991 32.8857 120.611 25.9404Z" fill="#8698C2"/>
<path d="M118.843 27.7081C118.843 27.7081 116.759 14.3858 103.058 12.5548C103.058 12.5548 99.9009 12.7442 97.691 14.7647C97.691 14.7647 109.435 18.995 110.698 30.9282C110.698 30.9282 116.506 30.4231 118.843 27.7081Z" fill="#8698C2"/>
<path d="M120.611 25.9404C120.611 25.9404 117.706 32.6331 102.553 31.0547" stroke="white" stroke-width="0.700019" stroke-miterlimit="10" stroke-linecap="round" stroke-linejoin="round"/>
<path d="M97.9438 40.1465C97.9438 40.5254 98.2595 40.7779 98.5752 40.7779C98.8909 40.7779 99.2066 40.5254 99.2066 40.1465C99.2066 39.7677 98.9541 39.5151 98.5752 39.5151C98.1964 39.5151 97.9438 39.7677 97.9438 40.1465Z" fill="#101B33"/>
<path d="M134.754 208.538C134.754 208.538 131.344 208.727 129.703 211.821" stroke="white" stroke-width="0.700019" stroke-miterlimit="10" stroke-linecap="round" stroke-linejoin="round"/>
<path d="M136.963 212.01C136.963 212.01 133.554 212.2 131.912 215.293" stroke="white" stroke-width="0.700019" stroke-miterlimit="10" stroke-linecap="round" stroke-linejoin="round"/>
<path d="M148.834 196.857C148.834 196.857 145.424 197.046 143.783 200.14" stroke="white" stroke-width="0.700019" stroke-miterlimit="10" stroke-linecap="round" stroke-linejoin="round"/>
<path d="M151.043 200.33C151.043 200.33 147.634 200.519 145.992 203.613" stroke="white" stroke-width="0.700019" stroke-miterlimit="10" stroke-linecap="round" stroke-linejoin="round"/>
<path d="M104.131 133.339C106.594 134.476 109.561 133.529 110.95 131.193C112.15 129.235 112.844 126.773 111.14 124.626C109.498 122.543 107.793 121.217 106.341 120.333C104.7 119.323 102.742 119.196 100.974 119.828L97.7543 121.027C96.4916 121.469 96.239 123.174 97.3124 123.995C99.5853 125.636 102.3 128.162 101.606 130.561C101.353 131.382 101.732 132.266 102.49 132.582L104.131 133.339Z" fill="#F9E3CD"/>
<path d="M82.0958 91.6047C82.0958 107.579 95.4181 110.42 106.278 120.333L96.744 121.785C96.744 121.785 69.026 109.852 69.91 94.8879C70.7308 79.8609 82.0958 91.6047 82.0958 91.6047Z" fill="#F9E3CD"/>
<path d="M87.2733 74.9992L84.5584 99.0551C83.6744 101.265 68.8368 102.528 68.2686 99.1814C67.0058 92.0467 67.3215 62.3715 76.7292 55.4262C84.3058 49.7437 89.6095 62.624 87.2733 74.9992Z" fill="#C4C9FF"/>
<path d="M195.051 49.5542H200.418C213.803 49.5542 224.726 38.6312 224.726 25.2458C224.726 11.8604 213.803 0.937378 200.418 0.937378H195.051C181.666 0.937378 170.743 11.8604 170.743 25.2458C170.68 38.6312 181.666 49.5542 195.051 49.5542Z" fill="#C5CAFF"/>
<path d="M208.563 19.2477H184.128" stroke="white" stroke-width="1.12501" stroke-miterlimit="10" stroke-linecap="round" stroke-linejoin="round"/>
<path d="M208.563 31.2441H184.128" stroke="white" stroke-width="1.12501" stroke-miterlimit="10" stroke-linecap="round" stroke-linejoin="round"/>
<path d="M178.193 54.1636C178.193 54.5424 175.857 59.7198 174.152 63.3187C173.521 64.6446 171.627 64.5815 171.122 63.1924L167.775 54.1636H178.193Z" fill="#808BF6"/>
<path d="M170.932 56.5628H175.415C186.528 56.5628 195.683 47.4708 195.683 36.2952C195.683 25.1828 186.591 16.0277 175.415 16.0277H170.932C159.82 16.0277 150.665 25.1197 150.665 36.2952C150.665 47.4708 159.757 56.5628 170.932 56.5628Z" fill="#808BF6"/>
<path d="M180.087 33.0121L174.089 43.3038L166.197 28.2767" stroke="white" stroke-width="1.12501" stroke-miterlimit="10" stroke-linecap="round" stroke-linejoin="round"/>
</svg>
