<svg width="201" height="443" viewBox="0 0 201 443" fill="none" xmlns="http://www.w3.org/2000/svg">
<circle cx="113" cy="205" r="62.5" fill="#F0F8FF" stroke="#B4D0E8"/>
<g clip-path="url(#clip0)">
<path d="M114.295 223.186C108.822 223.186 103.349 220.97 99.3692 217.275C95.1402 213.334 92.9014 207.915 92.9014 202.25C92.6526 190.427 102.106 180.821 114.046 180.575C115.787 180.575 117.529 180.821 119.27 181.067C119.767 181.067 120.016 181.56 120.016 182.053C120.016 182.545 119.27 182.792 119.021 182.792C117.529 182.545 115.787 182.299 114.295 182.299C103.598 182.545 94.8915 191.412 95.1402 202.004C95.1402 207.176 97.3791 212.102 101.11 215.551C104.842 219.245 109.817 221.216 115.041 220.97C125.738 220.723 134.444 211.856 134.196 201.265C134.196 200.772 134.693 200.28 135.191 200.28C135.688 200.28 136.186 200.772 136.186 201.265C136.434 213.088 126.981 222.694 115.041 222.94C114.544 223.186 114.544 223.186 114.295 223.186Z" fill="#2F5677"/>
<path d="M118.026 222.694C115.539 222.694 112.802 221.216 110.066 218.26C107.081 214.812 104.842 210.132 103.349 204.713C100.364 193.137 102.852 183.038 108.822 181.56C114.792 180.082 121.758 187.964 124.743 199.541C126.235 204.96 126.235 210.378 125.489 214.566C124.494 218.999 122.255 221.955 119.27 222.694C119.021 222.694 118.524 222.694 118.026 222.694ZM110.563 183.038C110.315 183.038 109.817 183.038 109.568 183.284C104.842 184.516 102.852 194.122 105.339 204.221C106.583 209.393 108.822 213.827 111.558 217.029C114.046 219.985 116.782 221.462 119.021 220.723C121.26 220.231 123.001 217.768 123.748 213.827C124.743 209.886 124.494 204.713 123.001 199.541C120.763 190.181 115.29 183.038 110.563 183.038Z" fill="#2F5677"/>
<path d="M94.6427 200.28C94.1452 200.28 93.8965 200.033 93.6477 199.541C93.6477 199.048 93.8965 198.556 94.394 198.309L124.743 190.92C125.24 190.92 125.738 191.166 125.986 191.659C125.986 192.151 125.738 192.644 125.24 192.89L94.6427 200.28Z" fill="#2F5677"/>
<path d="M97.8766 214.073C97.3791 214.073 97.1304 213.827 96.8816 213.334C96.8816 212.841 97.1304 212.349 97.6279 212.102L133.947 203.235C134.444 203.235 134.942 203.482 135.191 203.974C135.191 204.467 134.942 204.96 134.444 205.206L97.8766 214.073C98.1254 214.073 97.8766 214.073 97.8766 214.073Z" fill="#2F5677"/>
<path d="M120.514 226.881C120.016 226.881 119.767 226.635 119.519 226.142L107.081 176.388C106.832 175.895 107.081 175.402 107.578 175.402C108.076 175.402 108.573 175.649 108.822 176.141L121.509 226.142C121.509 226.388 121.26 226.881 120.514 226.881C120.763 226.881 120.514 226.881 120.514 226.881Z" fill="#2F5677"/>
<path d="M114.046 229.344C98.8717 229.344 86.4337 217.029 86.4337 202.004C86.4337 186.733 98.8717 174.664 114.046 174.664C114.544 174.664 115.041 175.156 115.041 175.649C115.041 176.141 114.544 176.634 114.046 176.634C99.8667 176.388 88.4238 187.964 88.4238 202.004C88.4238 216.044 99.8667 227.62 114.295 227.62C118.026 227.62 121.758 226.881 124.991 225.403C125.489 225.157 125.987 225.403 126.235 225.896C126.484 226.389 126.235 226.881 125.738 227.128C122.006 228.359 118.026 229.344 114.046 229.344Z" fill="#2F5677"/>
<path d="M114.046 235.748C113.549 235.748 113.051 235.256 113.051 234.763V228.359C113.051 227.866 113.549 227.374 114.046 227.374C114.544 227.374 115.041 227.866 115.041 228.359V234.763C115.041 235.256 114.544 235.748 114.046 235.748Z" fill="#2F5677"/>
<path d="M122.504 240.675H105.588V234.024H122.504V240.675ZM107.578 238.704H120.763V235.748H107.578V238.704Z" fill="#2F5677"/>
<path d="M131.708 240.675H96.3841C95.8866 240.675 95.389 240.182 95.389 239.689C95.389 239.197 95.8866 238.704 96.3841 238.704H131.459C131.957 238.704 132.454 239.197 132.454 239.689C132.454 240.182 132.205 240.675 131.708 240.675Z" fill="#2F5677"/>
<path d="M133.449 197.57L123.748 184.023C122.753 182.299 122.006 180.082 122.006 178.112C122.006 171.708 127.23 166.535 133.698 166.535C140.166 166.535 145.39 171.708 145.39 178.112C145.39 181.314 142.405 185.747 142.156 185.994L133.449 197.57ZM126.235 184.27L133.449 194.368L140.663 184.762C141.658 183.531 143.648 180.082 143.648 177.866C143.648 172.447 139.171 168.013 133.698 168.013C128.225 168.013 123.748 172.447 123.748 177.866C123.748 179.836 124.494 181.806 125.489 183.531L126.235 184.27Z" fill="#2F5677"/>
<path d="M133.698 182.545C131.211 182.545 128.972 180.575 128.972 177.866C128.972 175.156 131.211 173.432 133.698 173.432C136.186 173.432 138.425 175.402 138.425 178.112C138.425 180.821 136.434 182.545 133.698 182.545ZM133.698 175.402C132.206 175.402 130.962 176.634 130.962 178.112C130.962 179.59 132.206 180.821 133.698 180.821C135.191 180.821 136.434 179.59 136.434 178.112C136.434 176.634 135.191 175.402 133.698 175.402Z" fill="#2F5677"/>
</g>
<path d="M21.4779 396.897L151.923 324.288C160.067 320.436 166.697 308.566 166.697 297.706V14.529C166.697 3.73226 160.067 -1.95023 151.923 1.90123L15.7322 66.1133C7.58733 69.9648 0.957764 81.8349 0.957764 92.6947V374.546C0.957764 381.681 3.60959 384.901 8.15558 387.932L21.4779 396.897Z" fill="#98A1FF"/>
<path d="M96.9288 138.66C96.9288 138.66 166.76 308.314 166.76 297.454L178.251 12.256L161.141 1.52245C158.615 0.0702584 155.458 0.00711966 152.049 1.64873L15.7955 65.8608C11.8178 67.755 8.21884 71.5433 5.56702 76.2156L96.9288 138.66Z" fill="#98A1FF"/>
<path d="M29.4334 396.834L165.308 332.559C173.453 328.707 179.767 316.774 179.767 305.977V22.8001C179.767 12.0034 173.327 6.32089 165.182 10.1724L29.4334 74.4476C21.2885 78.2991 15.1009 90.2323 15.1009 101.029V384.206C15.0378 395.066 21.2885 400.685 29.4334 396.834Z" fill="white"/>
<path d="M32.1484 398.097L167.96 333.885C176.105 330.033 182.419 318.1 182.419 307.303V24.1262C182.419 13.3294 175.979 7.64694 167.834 11.4984L32.0853 75.7736C23.9404 79.6251 17.7528 91.5583 17.7528 102.355V385.532C17.7528 396.329 24.0035 401.948 32.1484 398.097Z" fill="#98A2FF"/>
<path d="M31.5167 90.9268L163.982 28.4826C166.949 27.0936 170.675 29.6191 170.675 33.0286V272.198V309.639C170.675 311.218 169.854 312.607 168.465 313.238L35.9996 375.683C33.0321 377.072 29.3069 374.546 29.3069 371.137V333.695V131.967V94.5257C29.2437 92.9473 30.1277 91.5582 31.5167 90.9268Z" fill="#DDE0FF"/>
<path d="M8.53453 140.996C10.3024 141.943 11.7546 141.122 11.7546 139.228V126.348C11.7546 124.454 10.3024 122.117 8.53453 121.17C6.76665 120.223 5.31445 121.044 5.31445 122.938V135.819C5.31445 137.713 6.76665 140.049 8.53453 140.996Z" fill="white"/>
<path d="M7.14532 140.996C8.91321 141.943 10.3654 141.122 10.3654 139.228V126.348C10.3654 124.454 8.91321 122.117 7.14532 121.17C5.37744 120.223 3.92524 121.044 3.92524 122.938V135.819C3.86211 137.776 5.37744 140.112 7.14532 140.996Z" fill="#808BF6"/>
<path d="M8.53453 164.484C10.3024 165.431 11.7546 164.61 11.7546 162.716V149.835C11.7546 147.941 10.3024 145.605 8.53453 144.658C6.76665 143.711 5.31445 144.532 5.31445 146.426V159.306C5.31445 161.2 6.76665 163.536 8.53453 164.484Z" fill="white"/>
<path d="M7.14556 164.484C8.91345 165.431 10.3656 164.61 10.3656 162.716V149.835C10.3656 147.941 8.91345 145.605 7.14556 144.658C5.37768 143.711 3.92549 144.532 3.92549 146.426V159.306C3.86235 161.2 5.37768 163.536 7.14556 164.484Z" fill="#808BF6"/>
<path d="M125.278 46.6665L29.4332 316.395L29.3069 292.276L113.976 52.0333L125.278 46.6665Z" fill="#C6CBFF"/>
<path d="M29.307 108.353L96.4235 120.855L170.548 235.578L170.612 255.34L91.4356 132.725L29.2439 122.56L29.307 108.353Z" fill="#C6CBFF"/>
<path d="M146.745 218.404L123.573 300.421L88.1524 350.995L74.1987 357.562L112.335 294.107L170.043 102.355L170.17 134.177L146.745 218.404Z" fill="#C6CBFF"/>
<path d="M169.98 82.9713C169.98 82.9713 125.972 96.041 114.923 101.534C103.874 106.964 67.7585 135.44 67.7585 135.44L29.307 168.587L29.2439 182.225L68.5793 145.668L114.229 112.268L169.98 95.5991V82.9713Z" fill="#C6CBFF"/>
<path d="M100.149 320.31L84.6798 285.331L47.9962 264.117L44.271 274.598L76.4086 294.171L93.0141 330.097L100.149 320.31Z" fill="#C6CBFF"/>
<path d="M170.674 276.365L85.3109 352.321L109.304 341.02L170.674 285.899V276.365Z" fill="#C6CBFF"/>
<path d="M170.359 188.161L131.781 195.106L29.2439 268.852L29.307 281.227L131.15 207.86L170.422 202.114L170.359 188.161Z" fill="#C6CBFF"/>
<path d="M69.3862 120.771C75.1804 110.909 74.8324 99.9505 68.6089 96.2938C62.3854 92.6371 52.643 97.667 46.8487 107.528C41.0545 117.39 41.4025 128.349 47.626 132.005C53.8496 135.662 63.5919 130.632 69.3862 120.771Z" fill="white"/>
<path d="M63.3549 114.737C65.4394 111.189 65.3013 107.239 63.0464 105.914C60.7915 104.589 57.2737 106.391 55.1892 109.939C53.1046 113.487 53.2428 117.437 55.4977 118.762C57.7526 120.086 61.2704 118.284 63.3549 114.737Z" stroke="#0F1A5C" stroke-width="1.32358" stroke-miterlimit="10"/>
<path d="M55.636 118.897L50.2061 127.863" stroke="#0F1A5C" stroke-width="1.32358" stroke-miterlimit="10" stroke-linecap="round" stroke-linejoin="round"/>
<path d="M94.0243 105.007L150.344 78.4254C152.238 77.5414 153.817 74.7002 153.817 72.1746C153.817 69.6491 152.238 68.3232 150.344 69.2071L94.0243 95.7885C92.1301 96.6725 90.5516 99.5137 90.5516 102.039C90.5516 104.565 92.1301 105.891 94.0243 105.007Z" fill="white"/>
<path d="M114.187 251.264C114.357 247.747 109.3 244.644 102.891 244.334C96.4829 244.024 91.1499 246.624 90.9798 250.142C90.8097 253.66 95.8669 256.762 102.275 257.072C108.684 257.382 114.017 254.782 114.187 251.264Z" fill="#C6CBFF"/>
<path d="M118.459 172.313L111.64 167.514C107.915 164.484 102.674 163.789 96.8023 166.251C85.311 171.05 75.9034 185.951 75.7771 199.525C75.714 203.819 76.5979 207.481 78.1764 210.259H78.1132L89.3519 230.4C89.6676 230.905 89.9833 231.347 90.3621 231.726C90.6147 231.979 90.8673 232.168 91.1198 232.358L98.949 237.851L97.9388 231.158C99.7067 229.832 101.348 227.749 102.422 225.097L115.049 197.947L115.491 195.863C117.133 191.696 117.196 186.582 117.196 182.289C117.259 178.311 116.438 174.901 115.113 172.123L118.459 172.313ZM96.3603 201.798C93.1402 203.124 90.3621 202.493 88.5943 200.473C87.3315 199.02 89.9833 197.631 89.9833 194.916C90.0464 188.476 96.6129 178.437 96.6129 178.437C96.6129 178.437 106.399 179.574 106.336 186.014C106.273 192.517 101.853 199.589 96.3603 201.798Z" fill="#1D486F"/>
<path d="M125.72 188.161C125.846 174.586 116.691 167.388 105.2 172.186C93.7085 176.985 84.3008 191.886 84.1746 205.461C84.1114 209.754 84.9953 213.416 86.5738 216.194H86.5107L97.7494 236.335C100.527 241.26 107.915 238.293 110.882 230.969L123.068 200.978H123.005C124.71 196.811 125.657 192.391 125.72 188.161ZM104.821 207.734C99.391 210.007 95.0344 206.597 95.0975 200.157C95.1607 193.717 99.6436 186.645 105.073 184.372C110.503 182.099 114.86 185.509 114.797 191.949C114.734 198.389 110.251 205.461 104.821 207.734Z" fill="white"/>
<path d="M127.046 188.792C127.172 175.217 118.017 168.019 106.526 172.818C95.0343 177.616 85.6266 192.517 85.5004 206.092C85.4372 210.385 86.3212 214.047 87.8996 216.826H87.8365L99.0752 236.967C101.853 241.892 109.241 238.924 112.208 231.6L124.394 201.609H124.331C126.035 197.505 126.983 193.085 127.046 188.792ZM106.147 208.365C100.717 210.638 96.3602 207.228 96.4234 200.788C96.4865 194.348 100.969 187.277 106.399 185.004C111.829 182.731 116.186 186.14 116.123 192.58C116.06 199.084 111.577 206.092 106.147 208.365Z" fill="#808BF6"/>
<path d="M200.666 332.875V362.866V372.21V402.201L130.329 442.799V412.872V361.603V331.612L200.666 332.875Z" fill="#BD9A75"/>
<path d="M130.329 331.612V361.603V412.872V442.799L59.9924 402.201V372.21V362.866V332.875L130.329 331.612Z" fill="#B3916E"/>
<path d="M130.329 373.662L200.855 332.938L130.329 292.15L59.74 332.938L130.329 373.662Z" fill="#E8C399"/>
<path d="M173.453 316.08L102.99 358.761L84.0482 348.154L154.259 304.778L173.453 316.08Z" fill="#BD9A75"/>
<path d="M176.736 368.674L195.614 357.562V344.808L176.736 355.92V368.674Z" fill="#9C7C5C"/>
<path d="M102.99 358.761L102.359 385.785L84.8062 375.998L85.0587 347.523L102.99 358.761Z" fill="#9C7C5C"/>
<path opacity="0.27" d="M135.254 355.605L87.2684 348.786L60.5607 333.38L91.0567 314.88L135.254 355.605Z" fill="#916644"/>
<path d="M135.254 355.605L179.451 330.096V305.346L135.254 304.525V355.605Z" fill="#CFA880"/>
<path d="M91.0566 330.096L135.254 355.605V304.525L91.0566 305.346V330.096Z" fill="#B3916E"/>
<path d="M135.38 330.917L179.703 305.346L135.38 279.712L91.0566 305.346L135.38 330.917Z" fill="#E8C399"/>
<path d="M167.013 337.231L166.444 312.986L156.595 318.669L157.352 342.851L167.013 337.231Z" fill="#E8C399"/>
<path d="M166.444 312.986L123.005 286.91L113.155 292.592L156.595 318.668L166.444 312.986Z" fill="#FFD6A8"/>
<path d="M101.79 303.705L113.029 310.145L117.386 307.682L106.147 301.179L101.79 303.705Z" fill="#BD9A75"/>
<path d="M174.147 411.04L163.035 417.544V403.59L174.147 397.087V411.04Z" stroke="#101B33" stroke-width="0.579109" stroke-miterlimit="10" stroke-linecap="round" stroke-linejoin="round"/>
<path d="M185.26 404.537L174.147 411.04V397.086L185.26 390.583V404.537Z" stroke="#101B33" stroke-width="0.579109" stroke-miterlimit="10" stroke-linecap="round" stroke-linejoin="round"/>
<path d="M196.372 398.034L185.26 404.537V390.583L196.372 384.143V398.034Z" stroke="#101B33" stroke-width="0.579109" stroke-miterlimit="10" stroke-linecap="round" stroke-linejoin="round"/>
<path d="M190.942 391.783V398.854" stroke="#101B33" stroke-width="0.579109" stroke-miterlimit="10" stroke-linecap="round" stroke-linejoin="round"/>
<path d="M189.553 394.498L190.942 391.151L192.331 392.856" stroke="#101B33" stroke-width="0.579109" stroke-miterlimit="10" stroke-linecap="round" stroke-linejoin="round"/>
<path d="M176.547 403.085C176.547 403.085 176.61 399.233 179.135 397.781C181.661 396.329 181.85 399.991 181.85 399.991L176.547 403.085Z" stroke="#101B33" stroke-width="0.579109" stroke-miterlimit="10" stroke-linecap="round" stroke-linejoin="round"/>
<path d="M171.306 402.39C171.306 402.39 171.243 406.242 168.717 407.694C166.192 409.146 166.002 405.484 166.002 405.484L171.306 402.39Z" stroke="#101B33" stroke-width="0.579109" stroke-miterlimit="10" stroke-linecap="round" stroke-linejoin="round"/>
<path d="M179.072 402.706V405.547C179.072 406.052 179.388 406.305 179.83 406.052C180.272 405.8 180.587 405.168 180.587 404.663V404.284" stroke="#101B33" stroke-width="0.579109" stroke-miterlimit="10" stroke-linecap="round" stroke-linejoin="round"/>
<path d="M168.717 407.694V411.924" stroke="#101B33" stroke-width="0.579109" stroke-miterlimit="10" stroke-linecap="round" stroke-linejoin="round"/>
<path d="M166.886 413.187L170.485 411.104" stroke="#101B33" stroke-width="0.579109" stroke-miterlimit="10" stroke-linecap="round" stroke-linejoin="round"/>
<defs>
<clipPath id="clip0">
<rect width="59.2048" height="74.3855" fill="white" transform="translate(86.4337 166.289)"/>
</clipPath>
</defs>
</svg>
