<svg width="512" height="763" viewBox="0 0 512 763" fill="none" xmlns="http://www.w3.org/2000/svg">
<path fill-rule="evenodd" clip-rule="evenodd" d="M239.92 188.98C250.486 196.542 260.722 198.424 273.5 198.457C289.218 198.457 315.171 187.263 322.765 169.862C301.006 172.074 300.444 135.059 301.567 122.941C284.034 142.951 259.929 126.573 240.415 119.738C242.297 130.404 243.981 141.432 242.726 152.262C241.24 165.074 234.835 166.362 224.103 171.744C225.16 177.787 235.198 185.579 239.92 188.98Z" fill="#FFD7B7"/>
<path fill-rule="evenodd" clip-rule="evenodd" d="M198.645 717.391C200.857 731.127 202.773 745.259 204.159 759.194C220.075 759.59 236.717 759.92 252.5 758.995C258.741 725.117 254.613 690.414 259.566 656.503C264.783 620.809 275.316 566.294 280.533 531.359C284.232 571.247 294.864 628.767 296.284 668.06C297.439 699.957 295.59 732.217 297.605 763.915C314.114 764.345 330.525 762.628 346.44 761.307C350.502 760.977 361.398 681.235 362.29 674.994C367.309 639.96 372.096 604.861 374.474 569.53C375.299 557.246 373.714 428.834 369.224 429.263C308.633 435.107 248.637 435.273 187.352 436.89C188.541 436.857 183.753 563.586 184.216 576.167C185.9 623.12 191.183 670.999 198.645 717.391Z" fill="#C0C6FF"/>
<path fill-rule="evenodd" clip-rule="evenodd" d="M261.613 189.773C246.986 186.537 237.08 178.48 232.688 164.645C214.197 164.579 187.187 169.102 170.149 176.532C136.139 191.358 141.786 240.788 129.932 269.515C110.846 315.841 81.6901 349.95 123.922 394.592C130.46 392.281 138.88 398.819 143.304 395.451C155.621 393.734 152.088 352.988 156.149 335.554C161.036 314.553 174.211 316.204 193.626 314.586C213.669 312.935 233.778 313.1 253.854 312.209C277.099 311.185 300.51 309.6 323.723 311.383C340.002 312.638 359.252 312.935 374.441 319.77C388.375 326.044 402.111 333.903 404.621 349.422C407.824 369.167 404.224 393.569 400.956 413.116C423.244 418.862 435.593 416.418 443.683 393.206C455.669 358.799 442.989 320.167 430.607 287.048C419.578 257.496 411.357 206.051 388.243 180.989C372.394 163.819 322.732 165.239 313.289 164.183C309.921 187.164 279.477 193.702 261.613 189.773Z" fill="#808BF6"/>
<path d="M418.885 266.114H143.503V467.664H418.885V266.114Z" fill="#BD9A75"/>
<path fill-rule="evenodd" clip-rule="evenodd" d="M394.88 244.816H169.456L143.503 266.147H418.918L394.88 244.816Z" fill="#B3875A"/>
<path fill-rule="evenodd" clip-rule="evenodd" d="M433.876 421.536C432.621 418.003 434.239 409.616 435.098 405.654C433.348 403.607 425.192 401.791 420.767 405.456C417.168 412.621 419.281 425.565 415.484 435.239C412.248 443.527 412.314 451.485 416.079 455.645C410.3 457.627 403.564 452.971 398.083 451.419C393.328 450.065 382.663 446.433 378.535 450.098C376.521 451.881 375.63 455.447 377.743 457.362C373.748 456.372 366.582 454.589 362.719 456.603C359.516 458.287 358.063 463.339 361.497 465.584C356.61 462.414 349.544 469.018 353.837 473.74C356.313 476.481 359.78 477.174 363.247 477.834C366.384 478.396 369.488 479.353 372.592 480.245C373.351 480.476 374.111 480.674 374.87 480.905C382.993 483.217 397.951 488.269 406.008 484.57C410.928 482.325 418.291 479.485 419.711 473.674C419.314 475.292 425.687 473.839 428.758 469.679C431.069 466.542 433.381 463.075 434.933 459.542C438.565 451.287 440.645 441.348 439.027 432.367C438.268 428.239 435.197 425.334 433.876 421.536Z" fill="white"/>
<path fill-rule="evenodd" clip-rule="evenodd" d="M155.225 477.603C173.484 482.523 191.81 479.023 209.079 471.627C219.613 467.103 216.773 464.131 212.546 464.66C211.027 464.858 208.452 465.848 208.419 465.353C207.56 451.287 176.687 462.943 175.069 463.075C178.14 460.928 188.112 453.697 185.867 448.282C182.102 439.202 162.192 454.523 157.14 456.042C152.517 457.428 146.706 458.023 145.649 452.178C156.215 446.928 148.125 433.159 147.267 429.626C146.078 424.706 146.342 425.433 147.102 420.447C147.762 416.187 148.026 410.574 147.564 406.215C146.904 399.809 143.172 390.465 138.418 386.8C132.837 387.526 126.2 389.111 124.814 391.522C122.667 395.253 119.398 418.994 120.092 422.923C121.247 429.527 121.512 435.735 121.578 442.438C121.743 464.858 136.007 472.452 155.225 477.603Z" fill="white"/>
<path d="M460.523 306.926C459.763 306.926 459.103 306.397 458.905 305.638C458.707 304.746 459.235 303.855 460.126 303.657L490.405 296.558C491.297 296.359 492.188 296.888 492.386 297.779C492.584 298.671 492.056 299.562 491.165 299.76L460.886 306.86C460.754 306.893 460.622 306.926 460.523 306.926Z" fill="white"/>
<path d="M464.749 292.562C464.188 292.562 463.626 292.265 463.329 291.737C462.867 290.944 463.131 289.954 463.924 289.491L509.524 263.142C510.316 262.68 511.307 262.944 511.769 263.736C512.231 264.529 511.967 265.519 511.174 265.982L465.575 292.331C465.31 292.496 465.013 292.562 464.749 292.562Z" fill="white"/>
<path d="M94.0394 283.515C93.6432 283.515 93.247 283.383 92.9168 283.086L61.2181 253.5C60.5577 252.873 60.5247 251.849 61.152 251.156C61.7794 250.495 62.803 250.462 63.4964 251.09L95.1951 280.675C95.8555 281.303 95.8885 282.326 95.2611 283.02C94.9309 283.35 94.5017 283.515 94.0394 283.515Z" fill="white"/>
<path d="M87.8649 300.553C87.6338 300.553 87.3696 300.487 87.1385 300.388L0.924614 257.859C0.0991269 257.463 -0.231068 256.472 0.165166 255.646C0.5614 254.821 1.55198 254.491 2.37747 254.887L88.5913 297.416C89.4168 297.812 89.747 298.803 89.3508 299.628C89.0866 300.223 88.4923 300.553 87.8649 300.553Z" fill="white"/>
<path fill-rule="evenodd" clip-rule="evenodd" d="M261.778 144.767C279.279 152.791 294.996 146.649 303.614 131.064C307.577 123.899 313.322 111.12 313.916 102.865C331.384 104.285 337.294 65.6854 316.723 73.0157C322.798 48.7794 308.666 15.3307 283.241 8.99096C268.547 5.3258 250.651 7.7032 239.986 19.161C225.028 35.2414 227.834 57.7277 228.099 77.8696C220.306 70.6053 215.815 79.9498 215.914 85.9924C216.08 95.7992 222.386 108.148 234.009 105.177C239.655 122.446 245.335 137.239 261.778 144.767Z" fill="#FFD7B7"/>
<path fill-rule="evenodd" clip-rule="evenodd" d="M324.615 18.5666C332.539 35.5056 330.657 60.0721 317.449 70.3411C317.879 62.5485 310.185 53.171 302.26 50.5295C292.982 47.4586 294.666 48.02 291.694 36.8924C291.43 60.0391 244.575 43.2982 234.075 61.657C231.764 65.7184 229.32 71.4638 228.396 77.6384C225.523 72.2893 219.117 67.6005 217.037 61.8221C214.065 53.6663 212.348 47.0294 214.197 38.5764C215.749 31.3782 217.103 27.647 220.075 20.8449C224.202 11.4344 233.646 4.50031 243.948 1.62761C254.184 -1.24508 266.434 0.703069 277 0.835147C294.369 1.0993 315.963 0.0756989 324.615 18.5666Z" fill="#1D1D1F"/>
<path d="M266.863 63.308C266.566 63.308 266.302 63.2089 266.071 62.9778C259.665 56.8362 249.99 58.5202 245.863 62.4165C245.401 62.8457 244.674 62.8457 244.245 62.3834C243.816 61.9212 243.816 61.1948 244.278 60.7655C248.967 56.3409 259.995 53.9965 267.689 61.3268C268.151 61.7561 268.151 62.5155 267.722 62.9448C267.458 63.1759 267.161 63.308 266.863 63.308Z" fill="#18173E"/>
<path d="M303.119 63.2089C302.789 63.2089 302.458 63.0769 302.227 62.8127C300.213 60.4353 296.812 58.9494 292.916 58.7513C288.755 58.5532 284.826 59.8079 282.416 62.1523C281.953 62.5816 281.227 62.5816 280.798 62.1193C280.368 61.657 280.368 60.9306 280.831 60.5013C283.703 57.7277 288.26 56.2088 293.081 56.473C297.638 56.7041 301.633 58.4872 304.043 61.3599C304.44 61.8552 304.407 62.5816 303.911 62.9778C303.647 63.1429 303.383 63.2089 303.119 63.2089Z" fill="#18173E"/>
<path fill-rule="evenodd" clip-rule="evenodd" d="M258.708 73.2799C258.708 77.5724 256.958 81.0394 254.778 81.0394C252.599 81.0394 250.849 77.5724 250.849 73.2799C250.849 68.9873 252.599 65.5203 254.778 65.5203C256.958 65.5203 258.708 68.9873 258.708 73.2799Z" fill="#18173E"/>
<path fill-rule="evenodd" clip-rule="evenodd" d="M297.109 73.2799C297.109 77.5724 295.359 81.0394 293.18 81.0394C291.001 81.0394 289.251 77.5724 289.251 73.2799C289.251 68.9873 291.001 65.5203 293.18 65.5203C295.326 65.5203 297.109 68.9873 297.109 73.2799Z" fill="#18173E"/>
<path d="M240.118 98.6719C239.589 98.6719 239.127 98.3086 238.995 97.7803C237.179 90.384 229.684 77.4733 223.443 75.4922C222.849 75.2941 222.485 74.6667 222.683 74.0393C222.882 73.445 223.509 73.0818 224.136 73.2799C231.731 75.6573 239.523 90.1198 241.24 97.219C241.405 97.8464 241.009 98.4737 240.382 98.6058C240.283 98.6718 240.217 98.6719 240.118 98.6719Z" fill="white"/>
<path d="M305.463 96.6907C304.803 96.6907 304.307 96.1624 304.307 95.502C304.473 88.5019 308.336 83.681 312.1 79.0253C314.544 76.0205 316.855 73.1478 318.176 69.7468C318.407 69.1524 319.067 68.8553 319.662 69.0864C320.256 69.3175 320.553 69.9779 320.322 70.5723C318.836 74.3035 316.327 77.4403 313.883 80.4451C310.218 85.0018 306.751 89.2943 306.586 95.502C306.619 96.1954 306.091 96.6907 305.463 96.6907Z" fill="white"/>
<path d="M228.957 96.5586C228.231 96.5586 227.471 96.3275 226.811 95.8652C224.301 94.1812 222.815 89.5585 223.74 86.1905C224.334 84.0112 225.853 82.6904 227.967 82.5584C228.594 82.5253 229.155 82.9876 229.188 83.648C229.221 84.2754 228.759 84.8367 228.099 84.8697C227.702 84.9027 226.448 84.9688 225.952 86.7849C225.325 89.1292 226.415 92.8274 228.099 93.9501C228.561 94.2472 229.188 94.5114 230.146 93.785C230.641 93.3887 231.368 93.4878 231.764 94.0161C232.16 94.5114 232.061 95.2378 231.533 95.6341C230.707 96.2284 229.816 96.5586 228.957 96.5586Z" fill="#18173E"/>
<path d="M317.812 92.8274C317.152 92.8274 316.459 92.6953 315.765 92.3982C315.171 92.167 314.907 91.4736 315.138 90.8793C315.369 90.2849 316.062 90.0208 316.657 90.2519C317.911 90.7802 319.034 90.483 319.992 89.4264C321.544 87.7094 321.973 84.8037 321.312 83.5489C321.114 83.1857 320.751 82.7565 319.761 82.9216C319.133 83.0206 318.539 82.5914 318.44 81.964C318.341 81.3366 318.77 80.7423 319.397 80.6432C321.147 80.3791 322.567 81.0395 323.327 82.4923C324.548 84.8037 323.789 88.7 321.676 91.0444C320.586 92.2 319.232 92.8274 317.812 92.8274Z" fill="#18173E"/>
<path d="M141.488 451.386C141.323 451.386 141.158 451.353 140.993 451.287C136.668 449.24 135.281 444.221 134.191 440.159C133.96 439.301 133.729 438.475 133.498 437.683C131.979 432.895 130.592 426.885 129.37 421.569C129.172 420.744 129.007 419.984 128.842 419.225C128.71 418.598 129.073 417.97 129.7 417.838C130.328 417.706 130.955 418.069 131.087 418.697C131.252 419.456 131.45 420.248 131.616 421.074C132.837 426.324 134.191 432.268 135.677 436.989C135.941 437.782 136.172 438.64 136.403 439.532C137.427 443.329 138.616 447.589 141.951 449.174C142.512 449.438 142.776 450.131 142.512 450.725C142.347 451.122 141.918 451.386 141.488 451.386Z" fill="#808BF6"/>
<path d="M155.654 474.203C155.159 474.203 154.696 473.872 154.531 473.344C154.366 472.717 154.729 472.089 155.324 471.924C160.541 470.471 168.664 466.905 174.211 462.481C174.706 462.084 175.433 462.15 175.829 462.646C176.225 463.141 176.159 463.867 175.664 464.264C169.885 468.886 161.399 472.618 155.951 474.137C155.852 474.17 155.753 474.203 155.654 474.203Z" fill="#808BF6"/>
<path d="M183.952 478.957C183.357 478.957 182.862 478.495 182.796 477.901C182.73 477.273 183.192 476.712 183.853 476.646C191.018 475.986 202.443 471.132 207.428 465.188C207.825 464.693 208.551 464.627 209.046 465.056C209.542 465.452 209.608 466.179 209.179 466.674C203.763 473.146 191.81 478.231 184.051 478.957C184.018 478.924 183.985 478.957 183.952 478.957Z" fill="#808BF6"/>
<path d="M413.569 474.566C413.536 474.566 413.47 474.566 413.437 474.566C403.795 473.443 394.847 468.226 386.196 463.174C383.818 461.787 381.573 460.466 379.295 459.245C378.733 458.948 378.535 458.254 378.832 457.693C379.13 457.131 379.823 456.933 380.384 457.231C382.663 458.485 384.941 459.806 387.318 461.193C395.771 466.113 404.489 471.198 413.668 472.287C414.295 472.353 414.758 472.948 414.692 473.575C414.659 474.137 414.13 474.566 413.569 474.566Z" fill="#808BF6"/>
<path d="M392.502 484.042C392.37 484.042 392.238 484.009 392.139 483.976C381.936 480.476 373.483 474.83 364.502 468.82C363.577 468.193 362.653 467.599 361.728 466.971C361.2 466.608 361.068 465.915 361.398 465.353C361.761 464.825 362.455 464.693 363.016 465.023C363.941 465.65 364.865 466.278 365.79 466.872C374.606 472.783 382.96 478.33 392.899 481.764C393.493 481.962 393.823 482.623 393.625 483.217C393.427 483.745 392.965 484.042 392.502 484.042Z" fill="#808BF6"/>
<path d="M422.715 460.863C419.744 460.863 417.201 459.674 415.22 457.297C414.824 456.801 414.857 456.075 415.352 455.679C415.847 455.282 416.574 455.315 416.97 455.811C418.555 457.693 420.404 458.551 422.748 458.551C428.296 458.518 428.758 449.207 429.154 440.985C429.385 436.197 429.616 431.673 430.838 429.098C431.102 428.537 431.796 428.272 432.39 428.537C432.951 428.801 433.216 429.494 432.951 430.089C431.928 432.268 431.697 436.56 431.499 441.117C431.267 445.608 431.036 450.296 430.013 453.962C428.725 458.518 426.314 460.863 422.814 460.863C422.748 460.863 422.748 460.863 422.715 460.863Z" fill="#808BF6"/>
<path d="M278.354 90.1859C277.859 90.1859 277.43 89.8887 277.265 89.3934C275.316 83.648 275.911 79.9498 276.736 74.8318C276.835 74.3035 276.901 73.7422 277 73.1478C277.099 72.5204 277.694 72.0912 278.321 72.1902C278.949 72.2893 279.378 72.8837 279.279 73.511C279.18 74.1054 279.081 74.6667 279.015 75.195C278.189 80.181 277.661 83.4499 279.444 88.634C279.642 89.2283 279.312 89.8887 278.717 90.0868C278.585 90.1528 278.453 90.1859 278.354 90.1859Z" fill="#18173E"/>
<path fill-rule="evenodd" clip-rule="evenodd" d="M236.717 97.8134C242 92.9595 250.981 91.9029 257.42 90.3179C265.675 88.2707 274.425 84.0112 283.043 84.9358C290.538 85.7282 297.572 91.2095 304.473 94.1812C308.435 95.8652 315.468 97.4501 316.657 102.469C318.341 109.568 309.987 121.719 306.883 127.729C303.647 133.97 297.109 141.267 291.397 145.163C282.317 151.338 266.83 151.008 257.453 145.295C247.547 139.286 241.207 128.984 237.542 117.889C235.462 111.582 230.674 104.516 235.759 98.837C236.056 98.4077 236.386 98.1105 236.717 97.8134Z" fill="white"/>
<path d="M301.567 250.859H259.137L250.717 266.081H307.279L301.567 250.859Z" fill="#866A4E"/>
<path d="M307.279 266.081H250.717V309.699H307.279V266.081Z" fill="#9C7C5C"/>
</svg>
