<svg width="87" height="38" viewBox="0 0 87 38" fill="none" xmlns="http://www.w3.org/2000/svg">
<g clip-path="url(#clip0)">
<path d="M0.522983 30.1008H0.832901C1.0266 30.1008 1.18156 29.9459 1.18156 29.7522V28.59C1.18156 28.3963 1.0266 28.2413 0.832901 28.2413H0.522983C0.329285 28.2413 0.174327 28.3963 0.174327 28.59V29.7522C0.154957 29.9459 0.329285 30.1008 0.522983 30.1008Z" fill="#808BF6"/>
<path d="M4.04836 0.678101H3.81592C2.30508 0.678101 1.06541 1.91777 1.06541 3.42861L0.755493 19.0407H4.04836V0.678101Z" fill="#404B54"/>
<path d="M4.04833 19.0406H0.755462L0.619873 25.6651H4.04833V19.0406Z" fill="#808BF6"/>
<path d="M0.619842 25.6651L0.484253 32.7738H4.0483V25.6651H0.619842Z" fill="#404B54"/>
<path d="M2.01445 32.8126L13.985 33.2968C14.2949 32.5027 14.6048 31.8053 14.9147 31.1661H1.97571C1.99508 32.6382 2.01445 32.8126 2.01445 32.8126Z" fill="#808BF6"/>
<path d="M80.501 31.1855C81.1983 32.6383 81.5663 33.7811 81.5663 33.7811C84.2975 34.1104 85.5371 32.9288 85.9826 31.1855H80.501Z" fill="#808BF6"/>
<path d="M84.9754 23.4763C84.4718 22.043 83.4452 20.8614 82.0893 20.1641L75.6779 16.8906C62.8357 6.25657 58.4775 3.27362 57.0054 2.44072C56.5211 2.16954 56.0369 1.89836 55.572 1.60781C54.158 0.736173 51.2525 -0.0192495 47.456 0.00012034C34.2265 0.03886 9.95608 0.03886 4.26136 0.03886C3.48657 0.03886 2.76988 0.387517 2.30501 1.00735C1.97572 1.43349 1.80139 1.97584 1.80139 2.5182C1.8595 21.3069 1.93698 28.4737 1.99509 31.1855H14.9148C19.1567 22.6434 24.2316 27.6021 26.8078 31.1855H68.1817C74.0314 20.7258 78.5446 27.1179 80.5009 31.1855H85.9826C86.5443 28.8611 85.6921 25.5489 84.9754 23.4763Z" fill="#808BF6"/>
<g opacity="0.8">
<path opacity="0.8" d="M84.4137 23.8056C84.2393 23.9218 84.0457 23.9799 83.8907 23.9799C83.3096 23.9412 82.5154 23.825 81.6438 23.5344C80.7915 23.2245 79.8811 22.7402 79.0676 21.9267C78.9708 21.7718 79.0289 21.5587 79.1838 21.4812L79.2613 21.4425C79.2613 21.4425 79.7649 21.3069 80.4622 21.21C81.2951 21.0938 82.438 21.0163 83.3677 21.3069C83.7357 21.7524 84.0263 22.256 84.2006 22.8758C84.3362 23.1858 84.3943 23.4957 84.4137 23.8056Z" fill="white"/>
</g>
<path d="M37.6356 17.5492H7.61238C5.38485 17.5492 3.56409 15.7285 3.56409 13.5009V7.98054C3.56409 5.75301 5.38485 3.93225 7.61238 3.93225H37.6356C39.8631 3.93225 41.6839 5.75301 41.6839 7.98054V13.5009C41.6839 15.7478 39.8631 17.5492 37.6356 17.5492ZM7.61238 4.84263C5.86909 4.84263 4.4551 6.25663 4.4551 7.99991V13.5203C4.4551 15.2636 5.86909 16.6776 7.61238 16.6776H37.6356C39.3789 16.6776 40.7929 15.2636 40.7929 13.5203V7.98054C40.7929 6.23726 39.3789 4.82326 37.6356 4.82326H7.61238V4.84263Z" fill="#808BF6"/>
<path d="M53.79 32.0959H43.0591V3.68042H53.79V32.0959ZM43.6402 31.5148H53.2476V4.24214H43.6402V31.5148Z" fill="#808BF6"/>
<path d="M41.2383 19.0988H4.00952V19.7186H41.2383V19.0988Z" fill="#808BF6"/>
<path d="M41.2383 21.8881H4.00952V22.2561H41.2383V21.8881Z" fill="#808BF6"/>
<path d="M25.7231 25.452C25.8587 25.5682 25.9943 25.6845 26.1299 25.8201H41.219V25.452H25.7231Z" fill="#808BF6"/>
<path d="M16.658 25.452H4.00952V25.8201H16.2512C16.3868 25.7038 16.5224 25.5682 16.658 25.452Z" fill="#808BF6"/>
<g opacity="0.8">
<path opacity="0.8" d="M85.4984 29.7716V29.8684C85.4984 30.0427 85.3628 30.1783 85.1885 30.1783H83.0578C82.8641 30.1783 82.6898 30.0234 82.6898 29.8103C82.6898 29.6166 82.7672 29.4423 82.9028 29.3067C83.0384 29.1711 83.2127 29.0936 83.4064 29.0936H84.8398C85.0722 29.0936 85.2659 29.2098 85.3822 29.3842C85.4596 29.5004 85.4984 29.6166 85.4984 29.7716Z" fill="white"/>
</g>
<path d="M85.4983 29.7716V29.8684H83.5613C83.4839 29.8684 83.4451 29.8103 83.4451 29.7522V29.5198C83.4451 29.4423 83.5032 29.4036 83.5613 29.4036H85.4015C85.4596 29.5004 85.4983 29.6166 85.4983 29.7716Z" fill="#EF5777"/>
<path d="M63.4167 9.85927C62.5644 9.41376 61.6347 9.18132 60.6855 9.16195L57.3927 9.08447C57.3927 9.08447 55.9787 9.08447 56.2111 10.8471L56.3273 15.8445C56.3273 15.8445 56.5791 16.9099 58.09 17.0261L70.5835 19.118V15.2634C68.2785 13.1909 65.5667 10.9827 63.4167 9.85927Z" fill="#778CA3"/>
<path d="M70.816 19.4086L58.0513 17.2585C56.4048 17.123 56.1143 15.9414 56.0949 15.9027V15.8639L55.9787 10.8665C55.9012 10.2079 56.0174 9.70432 56.3273 9.3363C56.7535 8.85205 57.3539 8.85205 57.3927 8.85205L60.6856 8.92953C61.6734 8.9489 62.6613 9.20071 63.5329 9.64621C65.3343 10.5953 67.7749 12.4161 70.7385 15.0698L70.816 15.1279V19.4086ZM56.5404 15.8252C56.5792 15.9608 56.8697 16.7162 58.09 16.813H58.1094L70.3511 18.8662V15.3603C67.4456 12.7648 65.0631 10.9827 63.3005 10.053C62.5063 9.64621 61.5959 9.41378 60.6662 9.39441L57.3733 9.31693C57.3733 9.31693 56.9472 9.31693 56.6566 9.64621C56.4242 9.89802 56.3467 10.3048 56.4242 10.8278V10.8471L56.5404 15.8252Z" fill="#485460"/>
<path d="M74.7869 19.2149C73.954 18.382 72.385 16.8712 70.5836 15.2635V19.1568L74.4963 19.8154C74.8256 19.8541 75.0193 19.4474 74.7869 19.2149Z" fill="#485460"/>
<path d="M74.5544 20.0285C74.535 20.0285 74.4963 20.0285 74.4769 20.0285L70.3705 19.3312V14.7599L70.7385 15.0892C72.075 16.2707 73.4503 17.5685 74.9418 19.06C75.1161 19.2343 75.1548 19.4861 75.058 19.7186C74.9611 19.9123 74.7674 20.0285 74.5544 20.0285ZM70.816 18.9631L74.535 19.583C74.6125 19.583 74.6318 19.5442 74.6512 19.5249C74.6706 19.5055 74.69 19.4474 74.6318 19.3893C73.276 18.0528 72.0363 16.8712 70.816 15.7671V18.9631Z" fill="#485460"/>
<path d="M70.5837 15.2635V19.1569L68.3949 18.7888L66.361 18.4402L60.9762 17.5298L58.0901 17.0456C56.5793 16.91 56.3275 15.864 56.3275 15.864L56.2694 13.2491L56.2113 10.8666C56.1144 10.1693 56.2887 9.74315 56.5212 9.49134C56.8698 9.10394 57.3928 9.10394 57.3928 9.10394H57.7608L60.6857 9.16205C60.7438 9.16205 60.8213 9.16205 60.8794 9.16205C61.7704 9.20079 62.642 9.43323 63.4168 9.84C65.5669 10.9828 68.2787 13.191 70.5837 15.2635Z" fill="#637285"/>
<path d="M70.6612 15.1861C70.603 15.1473 70.5449 15.0892 70.5062 15.0505C69.0922 13.7914 67.7944 12.7067 66.6322 11.8351C65.7219 11.1571 64.9083 10.5954 64.1723 10.1693C63.9592 10.053 63.7655 9.93683 63.5718 9.83998C63.5331 9.82061 63.5137 9.80124 63.475 9.78187C62.6227 9.33637 61.6736 9.10393 60.6857 9.08456L57.3928 9.00708C57.3735 9.00708 56.8117 9.00708 56.4243 9.45259C56.1338 9.78187 56.0176 10.2661 56.0951 10.886L56.2113 15.8834V15.9027C56.2306 15.9415 56.5018 17.0262 58.0514 17.1618L63.5331 18.0915L64.1335 18.1884L70.6612 19.2924V15.2248V15.1861ZM58.0901 16.9487C56.7343 16.8325 56.4437 15.9415 56.405 15.8446L56.2888 10.8472V10.8278C56.2113 10.2661 56.3081 9.83998 56.5599 9.54943C56.8892 9.18141 57.3735 9.18141 57.3735 9.18141L60.6663 9.25889C61.6155 9.27826 62.5452 9.5107 63.3587 9.93683C63.4168 9.97557 63.475 9.99494 63.5524 10.0337C63.7461 10.1305 63.9398 10.2467 64.1529 10.3823C65.8381 11.3896 67.9494 13.036 70.4868 15.3023V19.0406L64.1529 17.9753L63.5524 17.8785L58.0901 16.9487Z" fill="#404B54"/>
<path d="M74.787 19.215C73.9541 18.3821 72.3851 16.8712 70.5837 15.2635V19.1569L74.4964 19.8155C74.8257 19.8542 75.0194 19.4474 74.787 19.215Z" fill="#404B54"/>
<path d="M74.5544 19.9123C74.535 19.9123 74.5157 19.9123 74.4963 19.9123L70.5061 19.2344V15.0505L70.6611 15.1861C71.9976 16.3676 73.3535 17.6654 74.8643 19.1569C74.9999 19.2925 75.0386 19.4862 74.9418 19.6605C74.8643 19.8155 74.7094 19.9123 74.5544 19.9123ZM70.6804 19.06L74.5157 19.6992C74.6512 19.7186 74.7287 19.6411 74.7675 19.5636C74.8062 19.4862 74.8062 19.3699 74.7287 19.2731C73.2954 17.8591 71.9782 16.6001 70.6998 15.4572V19.06H70.6804Z" fill="#404B54"/>
<path d="M55.2234 31.7667L55.1846 31.5149C55.1846 31.4761 55.0297 30.3914 55.0297 21.7138V9.82069C55.0297 9.27833 55.2427 8.79409 55.6108 8.40669C55.9788 8.03866 56.4824 7.8256 57.0054 7.84497L62.8163 7.94182C63.5717 7.96119 64.3272 8.21299 64.947 8.69724C66.0123 9.53014 67.93 11.0797 70.9516 13.6753C71.5327 14.1595 71.862 14.8956 71.862 15.6704V22.7404L71.649 22.7985C71.6296 22.7985 70.2737 23.1665 68.8597 24.4062C66.9808 26.072 65.9155 28.4544 65.7024 31.4761L65.6831 31.7473L55.2234 31.7667ZM56.9666 8.42606C56.5986 8.42606 56.2693 8.56165 55.9982 8.83283C55.727 9.104 55.5914 9.45266 55.5914 9.84006V21.7138C55.5914 28.3963 55.6689 30.5464 55.7076 31.1856L65.1601 31.1662C65.4894 27.3504 67.1552 25.1422 68.5111 23.9413C69.6926 22.8953 70.8354 22.4304 71.3003 22.2755V15.651C71.3003 15.0505 71.0485 14.4888 70.5836 14.1014C67.5619 11.5252 65.6637 9.97565 64.5983 9.14274C64.0947 8.73598 63.4555 8.52291 62.8163 8.50354L57.0054 8.40669C56.986 8.42606 56.986 8.42606 56.9666 8.42606Z" fill="#808BF6"/>
<path d="M60.182 20.9001V21.0938C60.182 21.4812 59.9108 21.8299 59.5428 21.9074C59.4847 21.9267 59.4072 21.9267 59.3491 21.9267H57.0441C56.5792 21.9267 56.2112 21.5587 56.2112 21.0938V20.9001C56.2112 20.4353 56.5792 20.0672 57.0441 20.0672H59.3491C59.7946 20.0479 60.182 20.4353 60.182 20.9001Z" fill="#404B54"/>
<path d="M60.1821 20.9001V21.0938C60.1821 21.4812 59.911 21.8299 59.5429 21.9074H59.1168C59.4848 21.8105 59.756 21.4812 59.756 21.0938V20.9001C59.756 20.4353 59.388 20.0672 58.9231 20.0672H59.3492C59.7947 20.0479 60.1821 20.4353 60.1821 20.9001Z" fill="#404B54"/>
<path d="M59.7559 20.9001V21.0938C59.7559 21.4812 59.4847 21.8299 59.1167 21.9074H57.3734C56.9086 21.9074 56.5405 21.5393 56.5405 21.0745V20.8808C56.5405 20.4934 56.8117 20.1447 57.1797 20.0672H58.923C59.3685 20.0479 59.7559 20.4353 59.7559 20.9001Z" fill="#485460"/>
<path d="M59.6785 21.2101H56.5793C56.4631 21.2101 56.3662 21.1132 56.3662 20.997C56.3662 20.8808 56.4631 20.7839 56.5793 20.7839H59.6785C59.7947 20.7839 59.8915 20.8808 59.8915 20.997C59.8915 21.1132 59.7947 21.2101 59.6785 21.2101Z" fill="#404B54"/>
<path d="M52.4341 20.9001V21.0938C52.4341 21.4812 52.1629 21.8299 51.7949 21.9074C51.7368 21.9267 51.6593 21.9267 51.6012 21.9267H49.2962C48.8313 21.9267 48.4633 21.5587 48.4633 21.0938V20.9001C48.4633 20.4353 48.8313 20.0672 49.2962 20.0672H51.6012C52.0467 20.0479 52.4341 20.4353 52.4341 20.9001Z" fill="#404B54"/>
<path d="M52.434 20.9001V21.0938C52.434 21.4812 52.1628 21.8299 51.7948 21.9074H51.3686C51.7367 21.8105 52.0078 21.4812 52.0078 21.0938V20.9001C52.0078 20.4353 51.6398 20.0672 51.1749 20.0672H51.6011C52.0466 20.0479 52.434 20.4353 52.434 20.9001Z" fill="#404B54"/>
<path d="M51.9885 20.9001V21.0938C51.9885 21.4812 51.7173 21.8299 51.3493 21.9074H49.606C49.1411 21.9074 48.7731 21.5393 48.7731 21.0745V20.8808C48.7731 20.4934 49.0442 20.1447 49.4123 20.0672H51.1556C51.6204 20.0479 51.9885 20.4353 51.9885 20.9001Z" fill="#485460"/>
<path d="M51.9304 21.2101H48.8312C48.715 21.2101 48.6182 21.1132 48.6182 20.997C48.6182 20.8808 48.715 20.7839 48.8312 20.7839H51.9304C52.0466 20.7839 52.1435 20.8808 52.1435 20.997C52.1435 21.1132 52.0466 21.2101 51.9304 21.2101Z" fill="#404B54"/>
<path d="M1.00723 30.895H0V32.7739H1.00723V30.895Z" fill="#404B54"/>
<path d="M9.39429 27.8539H7.72849C7.63164 27.8539 7.53479 27.7764 7.53479 27.6602V27.5052C7.53479 27.4084 7.61227 27.3115 7.72849 27.3115H9.39429C9.49114 27.3115 9.58799 27.389 9.58799 27.5052V27.6602C9.56862 27.757 9.49114 27.8539 9.39429 27.8539Z" fill="#808BF6"/>
<path d="M33.6453 27.8539H31.9795C31.8826 27.8539 31.7858 27.7764 31.7858 27.6602V27.5052C31.7858 27.4084 31.8632 27.3115 31.9795 27.3115H33.6453C33.7421 27.3115 33.839 27.389 33.839 27.5052V27.6602C33.839 27.757 33.7421 27.8539 33.6453 27.8539Z" fill="#808BF6"/>
<path d="M73.4891 21.3069H72.4625C72.3656 21.3069 72.2688 21.2294 72.2688 21.1132V20.9582C72.2688 20.8614 72.3463 20.7645 72.4625 20.7645H73.4891C73.5859 20.7645 73.6828 20.842 73.6828 20.9582V21.1132C73.6828 21.21 73.6053 21.3069 73.4891 21.3069Z" fill="#808BF6"/>
<g opacity="0.51">
<path opacity="0.51" d="M66.361 18.4402L60.9762 17.5298L56.2694 13.2491L56.2113 10.8666C56.1144 10.1693 56.2887 9.74314 56.5212 9.49133L66.361 18.4402Z" fill="#3B3C4E"/>
</g>
<g opacity="0.51">
<path opacity="0.51" d="M70.5837 18.0141V19.1569L68.3949 18.7889L57.7609 9.104L60.6857 9.16211C60.7438 9.16211 60.8213 9.16211 60.8794 9.16211L70.5837 18.0141Z" fill="#3B3C4E"/>
</g>
<path d="M64.1722 10.1692V18.1689L63.5718 18.0721V9.82056C63.7655 9.93678 63.9592 10.0336 64.1722 10.1692Z" fill="#404B54"/>
<path d="M67.7944 17.1037C67.6782 17.1618 67.562 17.2199 67.4651 17.278C67.3683 17.3361 67.2521 17.433 67.1939 17.5298C67.1165 17.6461 67.1165 17.7235 67.1552 17.8591L67.4264 19.5443C67.4458 19.6411 67.5232 19.7186 67.6201 19.6993C67.7557 19.6993 67.8913 19.6799 68.0462 19.6799L67.6588 17.7623C67.6007 17.5105 67.6976 17.278 67.7944 17.1037Z" fill="#404B54"/>
<path d="M70.661 18.0141C70.4092 17.6267 70.0993 17.2781 69.6732 17.0844C69.2858 16.91 68.8597 16.8326 68.4335 16.91C68.2205 16.9488 67.988 17.0263 67.7943 17.1231C67.6975 17.2781 67.6006 17.5299 67.6394 17.801L68.0268 19.7187C68.3367 19.6993 68.666 19.6993 68.9952 19.6799C69.4214 19.6606 69.8475 19.6606 70.2543 19.6412C70.4674 19.6412 70.7192 19.5831 70.816 19.3894C70.9129 19.215 70.9516 19.002 70.9322 18.7889C70.9129 18.5177 70.816 18.2466 70.661 18.0141Z" fill="#485460"/>
<path d="M28.4929 33.8779L67.0969 33.2775C67.465 32.5221 67.8136 31.8248 68.1817 31.1855H26.8077C27.8537 32.6383 28.4929 33.8779 28.4929 33.8779Z" fill="#808BF6"/>
<path d="M28.9579 31.2436C28.9579 32.1733 28.7835 33.045 28.493 33.8585L15.4958 33.2774L13.985 33.2968C13.83 32.6963 13.7526 31.8634 13.7526 31.2242C13.7526 30.5462 13.8494 29.8877 14.0044 29.2678C14.876 26.0331 17.8396 23.6312 21.3455 23.6312C25.0452 23.6312 28.125 26.2849 28.8029 29.7908C28.9191 30.2751 28.9579 30.7593 28.9579 31.2436Z" fill="#1E272E"/>
<path d="M27.2747 33.0831C28.0466 29.814 26.0223 26.5382 22.7533 25.7663C19.4842 24.9944 16.2084 27.0187 15.4365 30.2877C14.6646 33.5568 16.6889 36.8326 19.9579 37.6045C23.227 38.3764 26.5028 36.3521 27.2747 33.0831Z" fill="#485460"/>
<path d="M23.1137 35.9098C25.4463 34.9436 26.5539 32.2695 25.5877 29.937C24.6215 27.6044 21.9474 26.4968 19.6149 27.463C17.2824 28.4292 16.1747 31.1033 17.1409 33.4358C18.1071 35.7683 20.7812 36.876 23.1137 35.9098Z" fill="#808E9B"/>
<path d="M25.5295 31.6891C25.5295 31.8247 25.5295 31.9602 25.5101 32.0958C25.4327 32.9481 25.084 33.7229 24.5804 34.3427C24.4061 34.5558 24.2124 34.7495 23.9993 34.9238C23.3795 35.4468 22.6047 35.7761 21.7524 35.8536C21.6168 35.8729 21.4812 35.8729 21.3456 35.8729C21.21 35.8729 21.0744 35.8729 20.9389 35.8536C20.0866 35.7761 19.3118 35.4274 18.692 34.9238C18.4789 34.7495 18.2852 34.5558 18.1109 34.3427C17.5879 33.7229 17.2586 32.9481 17.1811 32.0958C17.1617 31.9602 17.1617 31.8247 17.1617 31.6891C17.1617 31.5535 17.1617 31.4179 17.1811 31.2823C17.2586 30.43 17.6072 29.6552 18.1109 29.0354C18.2852 28.8223 18.4789 28.6286 18.692 28.4543C19.3118 27.9313 20.0866 27.602 20.9389 27.5246C21.0744 27.5052 21.21 27.5052 21.3456 27.5052C21.4812 27.5052 21.6168 27.5052 21.7524 27.5246C22.6047 27.602 23.3795 27.9507 23.9993 28.4543C24.2124 28.6286 24.4061 28.8223 24.5804 29.0354C25.1034 29.6552 25.4327 30.43 25.5101 31.2823C25.5295 31.4179 25.5295 31.5535 25.5295 31.6891Z" fill="#D2DAE2"/>
<path d="M22.9052 31.9348C23.044 31.0794 22.4631 30.2735 21.6078 30.1347C20.7525 29.9959 19.9466 30.5767 19.8077 31.4321C19.6689 32.2874 20.2498 33.0933 21.1051 33.2321C21.9604 33.3709 22.7664 32.7901 22.9052 31.9348Z" fill="#808E9B"/>
<path d="M19.1567 30.4107C19.499 30.4107 19.7765 30.1332 19.7765 29.7909C19.7765 29.4485 19.499 29.171 19.1567 29.171C18.8144 29.171 18.5369 29.4485 18.5369 29.7909C18.5369 30.1332 18.8144 30.4107 19.1567 30.4107Z" fill="#B7BEC4"/>
<path d="M23.5537 30.4107C23.896 30.4107 24.1735 30.1332 24.1735 29.7909C24.1735 29.4485 23.896 29.171 23.5537 29.171C23.2113 29.171 22.9338 29.4485 22.9338 29.7909C22.9338 30.1332 23.2113 30.4107 23.5537 30.4107Z" fill="#B7BEC4"/>
<path d="M21.365 29.3066C21.7073 29.3066 21.9848 29.0291 21.9848 28.6867C21.9848 28.3444 21.7073 28.0669 21.365 28.0669C21.0226 28.0669 20.7451 28.3444 20.7451 28.6867C20.7451 29.0291 21.0226 29.3066 21.365 29.3066Z" fill="#B7BEC4"/>
<path d="M19.1567 33.9554C19.499 33.9554 19.7765 33.6779 19.7765 33.3355C19.7765 32.9932 19.499 32.7157 19.1567 32.7157C18.8144 32.7157 18.5369 32.9932 18.5369 33.3355C18.5369 33.6779 18.8144 33.9554 19.1567 33.9554Z" fill="#B7BEC4"/>
<path d="M18.0721 32.1733C18.4144 32.1733 18.6919 31.8958 18.6919 31.5535C18.6919 31.2112 18.4144 30.9337 18.0721 30.9337C17.7298 30.9337 17.4523 31.2112 17.4523 31.5535C17.4523 31.8958 17.7298 32.1733 18.0721 32.1733Z" fill="#B7BEC4"/>
<path d="M23.5537 33.9554C23.896 33.9554 24.1735 33.6779 24.1735 33.3355C24.1735 32.9932 23.896 32.7157 23.5537 32.7157C23.2113 32.7157 22.9338 32.9932 22.9338 33.3355C22.9338 33.6779 23.2113 33.9554 23.5537 33.9554Z" fill="#B7BEC4"/>
<path d="M24.6578 32.1733C25.0001 32.1733 25.2776 31.8958 25.2776 31.5535C25.2776 31.2112 25.0001 30.9337 24.6578 30.9337C24.3155 30.9337 24.038 31.2112 24.038 31.5535C24.038 31.8958 24.3155 32.1733 24.6578 32.1733Z" fill="#B7BEC4"/>
<path d="M21.9848 34.4396C21.9848 34.0909 21.6942 33.8198 21.365 33.8198C21.0163 33.8198 20.7451 34.1103 20.7451 34.4396C20.7451 34.7883 21.0357 35.0594 21.365 35.0594C21.6942 35.0594 21.9848 34.7883 21.9848 34.4396Z" fill="#B7BEC4"/>
<path d="M82.0698 31.2049C82.0698 32.1346 81.8955 33.0063 81.6049 33.8198L68.6078 33.2387L67.0969 33.2581C66.942 32.6576 66.8645 31.8247 66.8645 31.1855C66.8645 30.5076 66.9613 29.849 67.1163 29.2291C67.9879 25.9944 70.9515 23.5925 74.4575 23.5925C78.1571 23.5925 81.2369 26.2462 81.9148 29.7521C82.0311 30.2364 82.0698 30.7206 82.0698 31.2049Z" fill="#1E272E"/>
<path d="M76.8057 37.3079C79.9091 36.0224 81.3828 32.4644 80.0973 29.361C78.8118 26.2576 75.2538 24.7838 72.1504 26.0693C69.047 27.3549 67.5732 30.9128 68.8588 34.0162C70.1443 37.1197 73.7022 38.5934 76.8057 37.3079Z" fill="#485460"/>
<path d="M74.4769 36.2604C77.0016 36.2604 79.0482 34.2138 79.0482 31.6891C79.0482 29.1645 77.0016 27.1179 74.4769 27.1179C71.9523 27.1179 69.9056 29.1645 69.9056 31.6891C69.9056 34.2138 71.9523 36.2604 74.4769 36.2604Z" fill="#808E9B"/>
<path d="M78.6607 31.6891C78.6607 31.8247 78.6607 31.9603 78.6414 32.0959C78.5639 32.9482 78.2152 33.723 77.7116 34.3428C77.5373 34.5559 77.3436 34.7496 77.1305 34.9239C76.5107 35.4469 75.7359 35.7762 74.8836 35.8536C74.748 35.873 74.6124 35.873 74.4768 35.873C74.3413 35.873 74.2057 35.873 74.0701 35.8536C73.2178 35.7762 72.443 35.4275 71.8232 34.9239C71.6101 34.7496 71.4164 34.5559 71.2421 34.3428C70.7191 33.723 70.3898 32.9482 70.3123 32.0959C70.293 31.9603 70.293 31.8247 70.293 31.6891C70.293 31.5535 70.293 31.418 70.3123 31.2824C70.3898 30.4301 70.7385 29.6553 71.2421 29.0355C71.4164 28.8224 71.6101 28.6287 71.8232 28.4544C72.443 27.9314 73.2178 27.6021 74.0701 27.5246C74.2057 27.5053 74.3413 27.5052 74.4768 27.5052C74.6124 27.5052 74.748 27.5053 74.8836 27.5246C75.7359 27.6021 76.5107 27.9508 77.1305 28.4544C77.3436 28.6287 77.5373 28.8224 77.7116 29.0355C78.2346 29.6553 78.5639 30.4301 78.6414 31.2824C78.6414 31.418 78.6607 31.5535 78.6607 31.6891Z" fill="#D2DAE2"/>
<path d="M76.0032 32.0565C76.2024 31.2132 75.6802 30.3682 74.8369 30.169C73.9936 29.9699 73.1485 30.4921 72.9494 31.3354C72.7503 32.1787 73.2725 33.0237 74.1158 33.2229C74.9591 33.422 75.8041 32.8998 76.0032 32.0565Z" fill="#808E9B"/>
<path d="M72.288 30.4107C72.6304 30.4107 72.9079 30.1332 72.9079 29.7909C72.9079 29.4486 72.6304 29.1711 72.288 29.1711C71.9457 29.1711 71.6682 29.4486 71.6682 29.7909C71.6682 30.1332 71.9457 30.4107 72.288 30.4107Z" fill="#B7BEC4"/>
<path d="M77.3049 29.7909C77.3049 30.1396 77.0143 30.4107 76.685 30.4107C76.3364 30.4107 76.0652 30.1202 76.0652 29.7909C76.0652 29.4423 76.3557 29.1711 76.685 29.1711C77.0143 29.1517 77.3049 29.4423 77.3049 29.7909Z" fill="#B7BEC4"/>
<path d="M74.4769 29.3066C74.8192 29.3066 75.0967 29.0291 75.0967 28.6868C75.0967 28.3445 74.8192 28.067 74.4769 28.067C74.1346 28.067 73.8571 28.3445 73.8571 28.6868C73.8571 29.0291 74.1346 29.3066 74.4769 29.3066Z" fill="#B7BEC4"/>
<path d="M72.288 33.9554C72.6304 33.9554 72.9079 33.6779 72.9079 33.3356C72.9079 32.9933 72.6304 32.7158 72.288 32.7158C71.9457 32.7158 71.6682 32.9933 71.6682 33.3356C71.6682 33.6779 71.9457 33.9554 72.288 33.9554Z" fill="#B7BEC4"/>
<path d="M71.1839 32.1734C71.5262 32.1734 71.8038 31.8959 71.8038 31.5535C71.8038 31.2112 71.5262 30.9337 71.1839 30.9337C70.8416 30.9337 70.5641 31.2112 70.5641 31.5535C70.5641 31.8959 70.8416 32.1734 71.1839 32.1734Z" fill="#B7BEC4"/>
<path d="M77.3049 33.3356C77.3049 32.9869 77.0143 32.7158 76.685 32.7158C76.3364 32.7158 76.0652 33.0063 76.0652 33.3356C76.0652 33.6843 76.3557 33.9554 76.685 33.9554C77.0143 33.9554 77.3049 33.6843 77.3049 33.3356Z" fill="#B7BEC4"/>
<path d="M77.7697 32.1734C78.1121 32.1734 78.3896 31.8959 78.3896 31.5535C78.3896 31.2112 78.1121 30.9337 77.7697 30.9337C77.4274 30.9337 77.1499 31.2112 77.1499 31.5535C77.1499 31.8959 77.4274 32.1734 77.7697 32.1734Z" fill="#B7BEC4"/>
<path d="M75.0967 34.4397C75.0967 34.091 74.8062 33.8198 74.4769 33.8198C74.1282 33.8198 73.8571 34.1104 73.8571 34.4397C73.8571 34.7883 74.1476 35.0595 74.4769 35.0595C74.8255 35.0595 75.0967 34.7883 75.0967 34.4397Z" fill="#B7BEC4"/>
</g>
<defs>
<clipPath id="clip0">
<rect width="86.1569" height="37.7711" fill="white" transform="translate(0 0.00012207)"/>
</clipPath>
</defs>
</svg>
